<svg xmlns="http://www.w3.org/2000/svg" fill="none" viewBox="0 0 179 77">
  <path fill="#212121" d="M46.0722 51.4311C46.0722 51.4613 45.9816 51.4915 45.891 51.5519C45.8004 51.5821 45.74 51.6425 45.74 51.6425C44.0713 52.5637 43.2407 53.9908 43.4219 56.2862C43.6635 59.5254 46.0118 75.744 46.0118 75.744L50.5346 74.317C50.5346 74.317 50.1193 71.6667 49.6134 68.4577C51.1613 67.982 52.7092 67.3553 54.2268 66.5248C55.7445 65.6942 57.1112 64.7126 58.3042 63.6404C60.7732 65.7848 62.7665 67.5667 62.7665 67.5667L66.3682 64.5012C66.3682 64.5012 53.8719 53.8473 51.2519 51.9748C49.3718 50.5704 47.7333 50.5402 46.0722 51.4311ZM52.1127 62.825C50.9499 63.4819 49.9079 63.8367 48.8735 64.0708C48.3072 60.4994 47.8013 57.2602 47.7409 56.8675C47.5899 55.9162 47.6805 55.5311 48.0051 55.3197C48.3298 55.1385 48.7225 55.2895 49.4322 55.9162C49.7569 56.1804 52.2259 58.3248 54.9366 60.7334C54.1891 61.4885 53.2981 62.1756 52.1127 62.825Z"/>
  <path fill="#212121" d="M35.5394 0.857178C16.0815 0.857178 0.285645 16.6228 0.285645 36.1109C0.285645 44.2353 3.01897 51.6726 7.63238 57.6225L8.64415 56.8523C6.0845 53.4017 4.21196 49.415 3.16998 45.0734C3.46445 45.1338 3.82687 45.2546 4.41582 45.4283C6.37897 46.055 10.0712 47.2706 12.7139 46.055C14.4128 45.2546 17.3575 44.6279 18.4826 44.1825C19.5548 43.737 21.8124 44.7487 19.1395 42.9593C19.1093 42.9291 19.0489 42.9291 18.9885 42.8989C18.8979 42.8687 18.8073 42.8385 18.7242 42.8083C18.4599 42.7478 16.3156 43.1631 15.8701 43.1027C15.7191 43.0725 15.5756 43.0121 15.4548 42.9215C14.292 42.2948 19.2301 38.4289 19.4113 37.4775C17.9842 37.6285 16.8215 38.5195 15.5454 39.0858C14.0579 39.7427 12.4195 39.7729 10.8187 39.7729C8.97638 39.7729 7.57953 41.2 5.94105 41.8569C5.11049 42.2118 3.70606 42.544 2.78489 43.1329C2.72448 42.7478 2.66409 42.3326 2.60368 41.9399C2.63388 41.2528 2.69429 40.4223 2.86796 39.4407C3.22283 37.3265 4.09116 35.7182 5.9637 33.1964C5.9637 33.1964 7.80604 30.9916 8.87822 30.2818C9.2935 29.9874 9.739 29.5947 10.1845 29.8665C10.6602 30.161 10.0637 31.9807 11.3171 32.2752C12.0646 32.4564 11.4077 33.7022 11.6719 34.4497C11.9362 35.2199 8.54599 38.1948 9.43696 38.5573C9.94285 38.7687 12.2005 37.6361 13.3935 37.251C14.4355 36.9263 15.5681 36.8961 16.7233 35.824C17.9163 34.7216 19.1017 34.0722 19.1017 34.0722C20.0531 33.2719 21.0045 32.4337 21.9558 31.6032C22.877 30.7726 23.768 29.9345 24.6665 29.1039C25.2328 28.5678 27.7925 27.1408 27.9963 26.6651C29.1893 24.0752 32.2775 22.5878 34.6031 20.9493C35.0184 20.6548 35.494 20.0281 35.7659 19.6732C36.0377 19.3184 36.302 18.7823 36.453 18.6011C36.7475 18.2764 36.8078 18.0046 37.1401 17.8536C37.2911 17.7931 37.797 17.7931 38.0009 18.0348C38.771 18.8351 39.7828 19.5222 39.813 20.3528C39.8734 21.659 43.5052 22.7614 44.3358 23.7732C44.6605 24.1885 44.8719 24.5736 45.0229 24.9964C44.3962 24.7548 43.7771 24.4301 43.2108 24.045C42.8559 23.7808 41.9876 23.8336 41.5421 23.7808C40.2962 23.5391 40.5605 24.1356 41.2778 24.8529C41.9951 25.6005 42.7955 26.2196 43.4524 27.0577C44.1999 27.9789 44.1395 28.7264 44.3434 29.8212C44.5548 30.984 45.2645 32.026 45.8308 33.0604C46.4273 34.1024 46.3669 35.2048 46.6916 36.3298C47.0465 37.4624 47.9978 38.4138 48.8057 39.2444C49.4928 39.9617 51.0407 41.6832 51.8713 41.2981C52.7623 40.9433 53.8646 42.0154 54.2195 41.7134C54.5442 41.4189 53.3285 39.9617 53.8042 39.5388C54.2799 39.0934 56.3337 39.8031 56.749 41.1169C57.2247 42.6648 57.1642 42.7856 57.1038 43.9106C57.0434 44.6581 56.7792 45.2169 56.2733 45.753C55.6466 46.3797 54.2497 47.3915 54.5215 48.4032C55.8278 47.7161 57.2322 47.6557 58.6895 47.6859C60.0863 47.7161 61.1283 47.1498 62.0797 46.1381C62.495 45.6926 63.6879 44.2957 64.3675 45.0055C64.7828 45.4208 63.5672 47.1498 64.9036 46.7874C65.7946 46.5458 66.5723 45.8662 67.3727 45.4208C67.5841 45.2999 67.7879 45.1565 67.939 45.0357C66.897 49.4377 64.964 53.4848 62.3138 56.9958L63.2953 57.7962C67.9691 51.8161 70.7629 44.2882 70.7629 36.1109C70.7629 16.653 54.9972 0.857178 35.5394 0.857178ZM66.6251 36.1713C63.6502 36.798 62.7593 34.2383 60.2902 32.5999C57.8212 30.9614 55.5635 30.3422 53.2681 28.0468C52.3469 27.1257 52.1054 25.5778 51.2144 24.5962C49.9912 23.29 49.2512 22.9578 47.6127 22.3084C44.6982 21.1758 42.2292 20.3452 39.8205 18.3519C39.4052 18.0272 38.4539 17.5817 37.5629 17.4307C37.1778 17.3401 36.9966 17.4005 36.8758 17.5515C36.5209 18.0272 36.1887 18.5633 35.864 19.0994C35.7734 19.2504 35.479 19.6657 35.2374 19.8696C34.7617 20.2848 34.1953 20.8209 33.7499 21.0928C31.3412 22.5802 28.1247 23.8261 26.758 26.3253C26.4937 26.7708 23.8737 28.0242 23.247 28.4999C22.2956 29.3002 21.3442 30.078 20.3627 30.7877C19.4415 31.4748 18.1579 32.5394 17.2065 33.2568C16.7006 33.0755 16.1646 32.9019 15.6889 32.8113C14.5563 32.5697 13.6049 31.7089 12.6233 31.1124C11.3775 30.312 11.4605 30.2214 11.0754 29.9798C10.7508 29.7986 10.5696 29.6853 10.4185 29.6249C9.49737 29.0586 9.43697 29.6249 8.13072 30.4253C7.02833 31.1124 5.75228 32.2374 4.80091 33.1359C4.0534 33.8533 3.28323 34.5932 2.48287 35.3709C3.49465 18.3217 17.9238 4.79103 35.5922 4.79103C53.0567 4.79103 67.3651 18.0574 68.7619 34.8952C68.2334 35.605 67.4632 35.9599 66.6251 36.1713Z"/>
  <path fill="#212121" d="M25.0065 51.6424C25.0065 51.6424 24.9159 51.582 24.8253 51.5216C24.7347 51.4914 24.6441 51.431 24.6441 51.4008C24.6441 51.431 24.6441 51.431 24.6441 51.431C22.9754 50.5098 21.3445 50.5702 19.4644 51.9368C16.8745 53.8094 4.31787 64.4029 4.31787 64.4029L7.94973 67.5288C7.94973 67.5288 9.94306 65.7771 12.4121 63.6327C13.6353 64.7049 14.9718 65.6563 16.5196 66.517C18.0373 67.3476 19.5852 68.0045 21.1028 68.4198C20.597 71.659 20.1515 74.3092 20.1515 74.3092L24.6743 75.7363C24.6743 75.7363 27.0527 59.495 27.2943 56.3086C27.4755 53.9906 26.645 52.5635 25.0065 51.6424ZM22.9829 56.9051C22.9225 57.2902 22.4167 60.537 21.8202 64.1084C20.7782 63.8668 19.7362 63.4817 18.5507 62.8323C17.3879 62.1754 16.497 61.5261 15.757 60.7484C18.4903 58.3699 20.9669 56.1954 21.2614 55.9613C22.0089 55.3346 22.3638 55.1911 22.7187 55.3648C23.0434 55.5385 23.1339 55.9236 22.9829 56.9051Z"/>
  <path fill="#212121" d="M37.7744 53.2205H33.1006V76.363H37.7744V53.2205Z"/>
  <path fill="#212121" d="M47.0538 44.8016C46.2535 43.1934 43.3616 44.4468 41.9043 43.1028C41.489 42.7479 40.6585 41.9702 40.2054 40.6639C39.7902 39.4181 39.1635 38.4063 38.1215 37.5984C36.2489 36.1411 31.8469 33.9061 32.1414 30.9312C32.2924 29.5948 33.8932 29.3229 34.5501 28.3414C34.9653 27.7751 34.9956 27.0049 35.4713 26.499C36.0073 25.9025 35.2598 25.9025 34.7313 25.8421C33.6289 25.8119 32.7983 27.0049 31.8772 27.5108C30.3595 28.281 29.023 29.4437 27.294 29.7986C26.7881 29.9194 24.2586 30.6896 25.9273 31.1049C27.0599 31.3993 28.3359 31.3163 29.2873 32.1167C30.5105 33.1586 31.4921 34.4951 32.7077 35.5371C33.3344 36.0732 33.9309 36.5488 34.4368 37.2058C35.0031 37.9533 34.9427 38.814 35.358 39.5842C35.7733 40.3317 36.5812 39.6748 37.1097 40.0901C38.7784 41.4567 36.4528 42.1438 35.8639 42.8007C35.0937 43.6615 34.9427 44.1976 33.4854 44.7941C32.8587 45.0584 28.7588 45.5643 28.2529 45.9267C27.747 46.2816 28.0112 46.4326 28.1321 46.5836C28.2831 46.7346 28.9626 46.9687 29.2949 46.9687C31.0239 47.1499 36.3169 48.1315 37.4193 46.7874C38.1668 45.8663 39.2616 45.7455 40.4848 46.0701C41.3456 46.2816 43.0445 46.1305 44.532 45.5038C45.355 45.1867 47.7032 45.1565 47.0538 44.8016Z"/>
  <path fill="#212121" d="M158.644 28.4623H155.043V17.3403C155.043 17.0458 154.778 16.8042 154.476 16.8042H153.23C152.906 16.8042 152.664 17.0458 152.664 17.3403V29.9875C152.664 30.282 152.906 30.5236 153.23 30.5236H158.644C158.939 30.5236 159.21 30.282 159.21 29.9875V29.006C159.21 28.7341 158.946 28.4623 158.644 28.4623Z"/>
  <path fill="#212121" d="M170.28 16.8042H164.33C164.005 16.8042 163.764 17.0458 163.764 17.3403V29.9875C163.764 30.282 164.005 30.5236 164.33 30.5236H165.606C165.9 30.5236 166.142 30.282 166.142 29.9573V24.3019H169.714C170.008 24.3019 170.25 24.0377 170.25 23.7356V22.8447C170.25 22.5502 169.985 22.2784 169.714 22.2784H166.142V18.858H170.28C170.574 18.858 170.816 18.6163 170.816 18.2917V17.3403C170.816 17.0383 170.574 16.8042 170.28 16.8042Z"/>
  <path fill="#212121" d="M161.951 16.8042H160.705C160.381 16.8042 160.139 17.0458 160.139 17.3403V29.9875C160.139 30.282 160.381 30.5236 160.705 30.5236H161.951C162.246 30.5236 162.518 30.282 162.518 29.9875V17.3403C162.51 17.0383 162.246 16.8042 161.951 16.8042Z"/>
  <path fill="#212121" d="M117.652 29.98V24.6266H119.524C120.295 24.6266 120.861 25.1325 120.861 25.9026V29.98C120.861 30.2744 121.125 30.516 121.427 30.516H122.673C122.967 30.516 123.239 30.2744 123.239 29.98V26.2877C123.239 24.9815 122.884 23.7281 121.337 23.5771C122.582 23.4562 123.005 22.4445 123.005 21.2288V19.2959C123.005 17.9594 122.054 16.7966 120.566 16.7966H115.84C115.515 16.7966 115.273 17.0382 115.273 17.3327V29.98C115.273 30.2744 115.538 30.516 115.84 30.516H117.086C117.38 30.516 117.652 30.282 117.652 29.98ZM117.622 18.7673H119.524C120.295 18.7673 120.8 19.2732 120.8 20.0434V21.3798C120.8 22.15 120.295 22.6559 119.524 22.6559H117.622V18.7673Z"/>
  <path fill="#212121" d="M86.5887 18.8278H88.7935V29.9875C88.7935 30.282 89.0351 30.5236 89.3598 30.5236H90.6359C90.9303 30.5236 91.2022 30.282 91.2022 29.9875V18.8278H93.4069C93.7014 18.8278 93.943 18.5635 93.943 18.2615V17.3403C93.943 17.0458 93.7014 16.8042 93.4069 16.8042H86.5963C86.3018 16.8042 86.0602 17.0458 86.0602 17.3403V18.2615C86.0527 18.5559 86.3244 18.8278 86.5887 18.8278Z"/>
  <path fill="#212121" d="M142.909 30.5161H148.322C148.617 30.5161 148.889 30.2744 148.889 29.98V28.9984C148.889 28.7341 148.624 28.4623 148.322 28.4623H144.721V17.3403C144.721 17.0458 144.479 16.8042 144.154 16.8042H142.909C142.614 16.8042 142.342 17.0458 142.342 17.3403V29.9875C142.342 30.282 142.607 30.5161 142.909 30.5161Z"/>
  <path fill="#212121" d="M124.848 30.516H130.919C131.213 30.516 131.485 30.2744 131.485 29.9498V29.0286C131.485 28.7341 131.221 28.4623 130.919 28.4623H126.668V24.2944H130.239C130.534 24.2944 130.775 24.0301 130.775 23.7281V22.8371C130.775 22.5426 130.511 22.2708 130.239 22.2708H126.668V18.8504H130.836C131.13 18.8504 131.372 18.6088 131.372 18.2841V17.3327C131.372 17.0382 131.107 16.7966 130.836 16.7966H124.856C124.561 16.7966 124.289 17.0382 124.289 17.3327V29.98C124.282 30.282 124.554 30.516 124.848 30.516Z"/>
  <path fill="#212121" d="M178.314 28.4623H174.093V24.2944H177.664C177.959 24.2944 178.2 24.0301 178.2 23.7281V22.8371C178.2 22.5426 177.936 22.2708 177.664 22.2708H174.093V18.8504H178.23C178.525 18.8504 178.767 18.6088 178.767 18.2841V17.3327C178.767 17.0382 178.502 16.7966 178.23 16.7966H172.281C171.956 16.7966 171.714 17.0382 171.714 17.3327V29.98C171.714 30.2744 171.956 30.516 172.281 30.516H178.321C178.616 30.516 178.857 30.2744 178.857 29.9498V29.0286C178.842 28.7341 178.578 28.4623 178.314 28.4623Z"/>
  <path fill="#212121" d="M96.6767 30.516C96.9711 30.516 97.2429 30.2744 97.2429 29.9799V24.3849H100.482V29.9497C100.482 30.2442 100.724 30.4858 101.048 30.4858H102.294C102.589 30.4858 102.861 30.2442 102.861 29.9497V17.31C102.861 17.0155 102.596 16.7739 102.294 16.7739H101.048C100.724 16.7739 100.482 17.0155 100.482 17.31V22.3387H97.2127V17.3402C97.2127 17.0457 96.9484 16.8041 96.6464 16.8041H95.4232C95.0986 16.8041 94.8569 17.0457 94.8569 17.3402V29.9875C94.8569 30.2819 95.0986 30.5236 95.4232 30.5236H96.6767V30.516Z"/>
  <path fill="#212121" d="M110.751 30.516C111.045 30.516 111.287 30.2744 111.287 29.9498V29.0286C111.287 28.7341 111.045 28.4623 110.751 28.4623H106.53V24.2944H110.101C110.396 24.2944 110.637 24.0301 110.637 23.7281V22.8371C110.637 22.5426 110.373 22.2708 110.101 22.2708H106.53V18.8504H110.668C110.962 18.8504 111.204 18.6088 111.204 18.2841V17.3327C111.204 17.0382 110.939 16.7966 110.668 16.7966H104.718C104.423 16.7966 104.151 17.0382 104.151 17.3327V29.98C104.151 30.2744 104.416 30.516 104.718 30.516H110.751Z"/>
  <path fill="#212121" d="M143.505 33.9362H142.259C141.934 33.9362 141.693 34.1778 141.693 34.4723V43.012L137.918 34.4421C137.797 34.1778 137.676 33.906 137.291 33.906H135.713C135.388 33.906 135.146 34.1703 135.146 34.4421V47.0893C135.146 47.3838 135.411 47.6254 135.713 47.6254H136.959C137.253 47.6254 137.525 47.3838 137.525 47.0893V38.5194L141.3 47.0893C141.421 47.3536 141.542 47.6254 141.927 47.6254H143.505C143.83 47.6254 144.071 47.3838 144.071 47.0893V34.4723C144.071 34.1778 143.83 33.9362 143.505 33.9362Z"/>
  <path fill="#212121" d="M122.115 33.906H117.441C117.116 33.906 116.875 34.1703 116.875 34.4421V47.0893C116.875 47.3838 117.116 47.6254 117.441 47.6254H118.687C118.981 47.6254 119.253 47.3838 119.253 47.0893V42.6269H122.409C123.715 42.6269 124.614 41.7058 124.614 40.3693V36.4128C124.614 35.0084 123.542 33.906 122.115 33.906ZM122.228 39.3802C122.228 40.3618 121.813 40.626 121.035 40.626H119.283V35.8692H121.035C121.805 35.8692 122.228 36.1636 122.228 37.1452V39.3802Z"/>
  <path fill="#212121" d="M114.79 33.906H112.321C112.027 33.906 111.815 34.1703 111.755 34.4421L109.913 42.8006L108.07 34.4421C108.01 34.1778 107.829 33.906 107.504 33.906H105.035C104.741 33.906 104.469 34.1703 104.469 34.4421V47.0893C104.469 47.3838 104.733 47.6254 105.035 47.6254H106.077C106.402 47.6254 106.643 47.3838 106.643 47.0893V36.7073L108.992 47.0893C109.052 47.3838 109.233 47.6254 109.558 47.6254H110.275C110.57 47.6254 110.781 47.3838 110.841 47.0893L113.19 36.7073V47.0893C113.19 47.3838 113.454 47.6254 113.756 47.6254H114.798C115.123 47.6254 115.364 47.3838 115.364 47.0893V34.4421C115.357 34.1778 115.092 33.906 114.79 33.906Z"/>
  <path fill="#212121" d="M99.1152 33.4604C96.8802 33.4604 95.1284 34.7969 95.1284 37.2357V44.1974C95.1284 46.606 96.8802 47.9727 99.1152 47.9727C101.35 47.9727 103.102 46.606 103.102 44.1974V37.2357C103.102 34.8045 101.35 33.4604 99.1152 33.4604ZM100.754 44.2351C100.754 45.2469 100.127 45.9642 99.1152 45.9642C98.1336 45.9642 97.5069 45.2469 97.5069 44.2351V37.2735C97.5069 36.2617 98.1336 35.5444 99.1152 35.5444C100.097 35.5444 100.754 36.2617 100.754 37.2735V44.2351Z"/>
  <path fill="#212121" d="M153.917 33.9363H152.694C152.369 33.9363 152.249 34.0571 151.977 34.5328L149.689 38.9952L147.401 34.5328C147.137 34.0269 147.016 33.9363 146.684 33.9363H145.461C145.196 33.9363 145.045 34.1175 145.045 34.3516C145.045 34.3818 145.045 34.4724 145.076 34.5328L148.496 41.283V47.0819C148.466 47.3763 148.738 47.6179 149.032 47.6179H150.308C150.603 47.6179 150.874 47.3763 150.874 47.0819V41.283L154.295 34.5328C154.325 34.4724 154.325 34.3818 154.325 34.3516C154.333 34.1175 154.182 33.9363 153.917 33.9363Z"/>
  <path fill="#212121" d="M90.0394 33.4604C87.8044 33.4604 86.0527 34.7969 86.0527 37.2357V44.1974C86.0527 46.606 87.8044 47.9727 90.0394 47.9727C92.2744 47.9727 94.0262 46.606 94.0262 44.1974V43.8727C94.0262 43.5782 93.7845 43.3366 93.4599 43.3366H92.2367C91.912 43.3366 91.6704 43.6009 91.6704 43.8727V44.1974C91.6704 45.2092 91.0135 45.9265 90.0621 45.9265C89.0805 45.9265 88.4236 45.2092 88.4236 44.1974V37.2357C88.4236 36.2542 89.0805 35.5067 90.0621 35.5067C91.0437 35.5067 91.6704 36.224 91.6704 37.2357V37.5604C91.6704 37.8549 91.9347 38.0965 92.2367 38.0965H93.4599C93.7845 38.0965 94.0262 37.8549 94.0262 37.5604V37.2357C94.0262 34.8045 92.2744 33.4604 90.0394 33.4604Z"/>
  <path fill="#212121" d="M139.247 30.1006C139.307 30.3422 139.428 30.546 139.662 30.546H141.089C141.354 30.546 141.505 30.3648 141.505 30.1308C141.505 30.1006 141.505 29.9496 141.444 29.8061C141.444 29.8061 138.885 18.6463 138.733 18.1178C138.613 17.5515 138.107 16.8115 136.77 16.8115C136.74 16.8115 136.71 16.8115 136.68 16.8115C136.363 16.8115 136.106 16.8644 135.879 16.9474C135.2 17.1891 134.913 17.7025 134.807 18.1178C134.686 18.6539 132.097 29.8061 132.097 29.8061C132.066 29.9571 132.036 30.1006 132.036 30.1308C132.036 30.3422 132.217 30.546 132.451 30.546H132.512H133.878H133.939C134.181 30.546 134.294 30.3648 134.354 30.1006L134.92 27.6617H138.643L139.247 30.1006ZM135.411 25.6382L136.808 19.2126L138.235 25.6382H135.411Z"/>
  <path fill="#212121" d="M131.334 35.1898C131.213 34.6235 130.707 33.8835 129.37 33.8835C129.34 33.8835 129.31 33.8835 129.28 33.8835C128.94 33.8835 128.653 33.9439 128.419 34.0497C127.785 34.2988 127.513 34.7896 127.407 35.1973C127.256 35.7334 124.697 46.8857 124.697 46.8857C124.666 47.0669 124.636 47.2103 124.636 47.2103C124.636 47.4217 124.817 47.6256 125.052 47.6256H125.112H126.479H126.539C126.781 47.6256 126.894 47.4444 126.954 47.2103L127.521 44.7715H131.243L131.809 47.2103C131.87 47.4519 132.021 47.6256 132.255 47.6256H133.682C133.946 47.6256 134.097 47.4444 134.097 47.2103C134.097 47.1801 134.067 47.0291 134.037 46.8857C134.044 46.8781 131.485 35.7561 131.334 35.1898ZM128.034 42.7479L129.431 36.3224L130.828 42.7479H128.034Z"/>
</svg>
