<svg xmlns="http://www.w3.org/2000/svg" fill="none" viewBox="0 0 48 48">
  <path fill="currentColor" fill-rule="evenodd" d="M10 4C10 2.9 9.1 2 8 2C6.9 2 6 2.9 6 4V12H2V32C2 34.6 3.68 36.8 6 37.64V46H10V37.64C12.32 36.8 14 34.6 14 32V12H10V4ZM8 34C6.9 34 6 33.1 6 32V28H10V32C10 33.1 9.1 34 8 34ZM6 16V24H10V16H6ZM26 4C26 2.9 25.1 2 24 2C22.9 2 22 2.9 22 4V12H18V32C18 34.6 19.68 36.8 22 37.64V46H26V37.64C28.32 36.8 30 34.6 30 32V12H26V4ZM22 32C22 33.1 22.9 34 24 34C25.1 34 26 33.1 26 32V28H22V32ZM22 24V16H26V24H22ZM42 4V12H46V32C46 34.6 44.32 36.8 42 37.64V46H38V37.64C35.68 36.8 34 34.6 34 32V12H38V4C38 2.9 38.9 2 40 2C41.1 2 42 2.9 42 4ZM40 34C38.9 34 38 33.1 38 32V28H42V32C42 33.1 41.1 34 40 34ZM38 16V24H42V16H38Z" clip-rule="evenodd"/>
</svg>
