<svg xmlns="http://www.w3.org/2000/svg" fill="none" viewBox="0 0 20 20">
  <path fill="currentColor" fill-rule="evenodd" d="M10.0003 1.66699C5.40033 1.66699 1.66699 5.40033 1.66699 10.0003C1.66699 14.6003 5.40033 18.3337 10.0003 18.3337C14.6003 18.3337 18.3337 14.6003 18.3337 10.0003C18.3337 5.40033 14.6003 1.66699 10.0003 1.66699ZM10.0003 16.667C6.32533 16.667 3.33366 13.6753 3.33366 10.0003C3.33366 6.32533 6.32533 3.33366 10.0003 3.33366C13.6753 3.33366 16.667 6.32533 16.667 10.0003C16.667 13.6753 13.6753 16.667 10.0003 16.667ZM8.33366 11.8086L13.8253 6.31698L15.0003 7.50031L8.33366 14.167L5.00033 10.8336L6.17533 9.65865L8.33366 11.8086Z" clip-rule="evenodd"/>
</svg>
