<svg xmlns="http://www.w3.org/2000/svg" fill="none" viewBox="0 0 16 20">
  <g clip-path="url(#fb__clip0)">
    <path fill="currentColor" fill-rule="evenodd" d="M9.99992 4.8251C10.4195 4.8251 10.8391 4.8251 11.3985 4.8251H11.5384V2.44748C11.2587 2.44748 10.9789 2.44748 10.8391 2.30762C10.4195 2.30762 9.86005 2.30762 9.44047 2.30762C8.74117 2.30762 8.04187 2.44748 7.48243 2.86706C6.78313 3.56636 6.36355 4.1258 6.22369 4.96496C6.22369 5.24468 6.08383 5.66426 6.08383 5.94398C6.08383 6.50342 6.08383 7.06286 6.08383 7.48244V7.6223H3.84607V10.2796H6.08383V16.8531H8.88103V10.2796H11.1188C11.2587 9.44048 11.3985 8.46146 11.3985 7.6223C11.2587 7.6223 11.1188 7.6223 10.8391 7.6223C10.1398 7.6223 8.74117 7.6223 8.74117 7.6223C8.74117 7.6223 8.74117 6.36356 8.74117 5.80412C8.88103 5.10482 9.44047 4.96496 9.99992 4.8251Z" clip-rule="evenodd"/>
  </g>
  <defs>
    <clipPath id="fb__clip0">
      <path fill="currentColor" d="M0 0H15.385V20H0z"/>
    </clipPath>
  </defs>
</svg>
