<svg xmlns="http://www.w3.org/2000/svg" fill="none" viewBox="0 0 16 15">
  <path fill="currentColor" fill-rule="evenodd" d="M13.0845 0.307129H3.06724C1.7535 0.307129 0.768188 1.29244 0.768188 2.60618V12.6235C0.768188 13.9372 1.7535 14.9225 3.06724 14.9225H13.0845C14.3983 14.9225 15.3836 13.9372 15.3836 12.6235V2.60618C15.3836 1.45665 14.3983 0.307129 13.0845 0.307129ZM11.2781 2.44196C11.2781 2.27774 11.4423 2.11353 11.6066 2.11353H13.413C13.5772 2.11353 13.7414 2.27774 13.7414 2.44196V4.24836C13.7414 4.41257 13.5772 4.57679 13.413 4.57679H11.6066C11.4423 4.57679 11.2781 4.41257 11.2781 4.24836V2.44196ZM5.36629 6.71162C5.85895 5.5621 6.84425 4.90523 7.99378 4.90523C9.1433 4.90523 10.2928 5.72632 10.6213 6.71162C10.7855 7.04006 10.7855 7.3685 10.7855 7.69693C10.7855 9.33911 9.47174 10.6529 7.82956 10.6529C6.18738 10.6529 4.87363 9.33911 4.87363 7.69693C5.20207 7.3685 5.20208 7.04006 5.36629 6.71162ZM13.9056 12.7877C13.9056 13.1161 13.5772 13.6088 13.0845 13.6088H3.06724C2.7388 13.6088 2.41037 13.2803 2.41037 12.7877V6.71162H3.88833C3.72411 7.04006 3.72411 7.3685 3.72411 7.69693C3.72411 10.1602 5.69472 12.1308 8.15799 12.1308C10.6213 12.1308 12.5919 10.1602 12.5919 7.69693C12.5919 7.3685 12.5919 7.04006 12.4277 6.71162H13.9056V12.7877Z" clip-rule="evenodd"/>
</svg>
