<svg xmlns="http://www.w3.org/2000/svg" fill="none" viewBox="0 0 365 65">
  <path fill="#212121" d="M85.5158 11.375H72.3379V53.4012H85.5158V11.375Z"/>
  <path fill="#212121" d="M90.0103 53.4091H103.188V38.4061H117.644V28.2593H103.188V21.4573H119.405V11.3186H90.0103V53.4091Z"/>
  <path fill="#212121" d="M134.826 31.9097C134.826 24.987 139.08 21.3448 144.668 21.3448C146.911 21.4091 149.162 21.9559 151.228 22.8644V11.8011C148.189 11.0132 145.037 10.587 141.878 10.5227C130.887 10.5227 121.351 17.5659 121.351 31.6604C121.351 46.6634 130.461 54.0122 141.878 54.0122C145.037 53.9479 148.254 53.3448 151.293 52.3077L151.413 41.1318C149.17 42.1609 146.734 42.7077 144.25 42.772C138.774 42.78 134.826 39.1298 134.826 31.9097Z"/>
  <path fill="#212121" d="M191.976 47.7568C190.151 47.7568 188.213 48.9146 188.213 52.0664C188.213 55.2262 190.159 56.3197 191.976 56.3197C193.801 56.3197 195.739 55.1619 195.739 52.0664C195.747 48.9709 193.801 47.7568 191.976 47.7568ZM191.976 54.7438C190.762 54.7438 190.095 53.7709 190.095 52.0744C190.095 50.3136 190.762 49.3408 191.976 49.3408C192.644 49.3408 193.858 49.7669 193.858 52.0744C193.858 54.382 192.708 54.7438 191.976 54.7438Z"/>
  <path fill="#212121" d="M202.123 53.6505L202.308 53.7148C202.123 53.2886 201.946 52.9268 201.641 52.6213C202.493 52.2595 202.975 51.4072 202.975 50.4987C202.975 48.6736 201.946 47.8293 199.759 47.8293H196.784V56.151H198.545V53.0555H199.333C200.065 53.0555 200.306 53.5379 200.668 54.3902C201.094 55.2424 201.52 56.2153 202.911 56.2153C203.152 56.2153 203.458 56.2153 203.763 56.151V54.752H203.337C202.67 54.7439 202.42 54.2535 202.123 53.6505ZM199.51 51.7691H198.537L198.473 49.3409H199.687C200.595 49.3409 201.142 49.8233 201.142 50.555C201.142 51.2866 200.483 51.7691 199.51 51.7691Z"/>
  <path fill="#212121" d="M184.507 53.8915L182.931 47.7568H181.411L179.707 53.8915L178.195 47.7568H176.129L178.493 56.1347H180.559L182.079 50.8523L183.598 56.1991H185.6L187.972 47.8212H185.962L184.507 53.8915Z"/>
  <path fill="#212121" d="M213.299 47.7568L210.806 47.8774V56.1991H213.66C216.089 56.1991 217.488 54.8644 217.488 52.1307C217.488 49.397 215.904 47.7568 213.299 47.7568ZM213.66 54.6795H212.631L212.696 49.2764H213.363C214.883 49.2764 215.735 50.185 215.735 52.0664C215.727 53.7066 214.939 54.6795 213.66 54.6795Z"/>
  <path fill="#212121" d="M271.839 47.7007C270.014 47.7007 268.077 48.8585 268.077 52.0102C268.077 55.162 270.022 56.2635 271.839 56.2635C273.665 56.2635 275.602 55.1057 275.602 52.0102C275.61 48.9148 273.665 47.7007 271.839 47.7007ZM271.839 54.6796C270.561 54.6796 269.894 53.771 269.894 52.0102C269.894 50.2494 270.625 49.2766 271.839 49.2766C272.507 49.2766 273.721 49.7027 273.721 52.0102C273.721 54.3178 272.571 54.6796 271.839 54.6796Z"/>
  <path fill="#212121" d="M266.195 53.6505C266.075 53.3449 265.834 52.9831 265.464 52.6213C266.316 52.2595 266.798 51.4072 266.798 50.4987C266.798 48.6736 265.825 47.8293 263.639 47.8293H260.664V56.151H262.489V53.0555H263.277C264.008 53.0555 264.25 53.5379 264.611 54.3902C265.037 55.2424 265.464 56.2153 266.855 56.2153C267.096 56.2153 267.401 56.2153 267.707 56.151H267.827V54.752H267.401C266.742 54.7439 266.501 54.2535 266.195 53.6505ZM263.462 51.7691H262.489V49.3409H263.582C264.555 49.3409 265.102 49.8233 265.102 50.555C265.102 51.2866 264.434 51.7691 263.462 51.7691Z"/>
  <path fill="#212121" d="M287.694 47.8213V47.8856H284.776V56.3278H286.601V53.5942H287.936C288.056 53.5942 288.241 53.5942 288.362 53.5942C289.881 53.5298 291.031 52.2595 290.975 50.7399C290.975 48.8504 289.817 47.8213 287.694 47.8213ZM287.574 52.0665H286.545L286.48 49.3328H287.51C288.539 49.3328 289.15 49.8153 289.15 50.7318C289.15 51.5841 288.603 52.0665 287.574 52.0665Z"/>
  <path fill="#212121" d="M281.496 52.8625H281.431C281.431 54.0766 280.949 54.6876 279.976 54.6876C279.003 54.6876 278.521 54.0766 278.521 52.8625V47.8213H276.76V52.7419C276.696 53.7148 277.001 54.6876 277.668 55.4756C278.336 56.0866 279.188 56.3841 280.04 56.3278C281.56 56.3278 283.256 55.7168 283.256 52.7419V47.8213H281.496V52.8625Z"/>
  <path fill="#212121" d="M255.928 53.16H257.753V53.2806C257.817 54.0122 257.327 54.6796 256.595 54.7359C256.531 54.7359 256.41 54.7359 256.289 54.7359C255.075 54.7359 254.344 53.763 254.344 52.0665C254.344 50.4263 255.075 49.3328 256.225 49.3328C257.077 49.3328 257.745 50.0002 257.745 50.8524V50.973L259.385 50.7318V50.6675C259.321 49.0273 257.865 47.6926 256.225 47.8132C253.853 47.8132 252.519 49.3891 252.519 52.1228C252.519 54.8565 253.918 56.3761 256.281 56.3761C257.922 56.4967 259.321 55.3469 259.497 53.7067C259.497 53.5861 259.497 53.4655 259.497 53.3449V51.8253H255.912V53.16H255.928Z"/>
  <path fill="#212121" d="M206.368 47.7568H204.607V56.1347H210.018V54.6232H206.368V47.7568Z"/>
  <path fill="#212121" d="M250.589 47.8776H248.458L245.668 51.6484V47.8213H243.908V56.1992H245.725V52.3158L248.579 56.1992H250.71L247.486 51.9459L250.589 47.8776Z"/>
  <path fill="#212121" d="M225.624 51.8252H225.809C226.171 51.7046 226.718 51.3428 226.718 50.1207C226.718 48.6654 225.809 47.8774 223.984 47.8774H220.768V56.1991H224.354C226.179 56.1991 227.273 55.3468 227.273 53.8272C227.265 52.8624 226.597 52.0101 225.624 51.8252ZM222.465 49.2764H223.437C224.346 49.2764 224.772 49.582 224.772 50.2493C224.772 50.9166 224.41 51.2222 223.679 51.2222H222.465V49.2764V49.2764ZM223.864 54.6795H222.465V52.4925H223.799C224.467 52.4925 225.198 52.8543 225.198 53.586C225.198 54.3176 224.772 54.6795 223.864 54.6795Z"/>
  <path fill="#212121" d="M232.121 47.8774H230.36L227.265 56.2553H229.025L229.757 54.189H232.547L233.279 56.2553H235.16L232.121 47.9337V47.8774V47.8774ZM230.304 52.798L231.212 50.1287L232.121 52.798H230.304Z"/>
  <path fill="#212121" d="M240.507 53.0394L237.588 47.8213H235.763V56.1992H237.588V51.158L240.507 56.1992H242.324V47.8213H240.507V53.0394Z"/>
  <path fill="#212121" d="M180.254 9.25244H176.853V22.0042H180.254V9.25244Z"/>
  <path fill="#212121" d="M185.664 18C185.664 15.9337 186.396 15.0251 187.731 15.0251C188.639 15.0251 189.25 15.6362 189.25 17.397V22.0121H192.531V16.0623C192.531 15.8774 192.531 15.7005 192.531 15.5156C192.41 13.6342 190.77 12.1789 188.888 12.2995C187.433 12.1789 186.098 12.9668 185.423 14.2452V12.4844H182.448L182.384 22.0201H185.664V18Z"/>
  <path fill="#212121" d="M195.497 14.8404V18.7881C195.497 21.0957 196.165 22.3741 199.14 22.3741C199.807 22.3741 200.539 22.3097 201.206 22.1891L201.085 20.0665C200.724 20.1308 200.418 20.1871 200.056 20.1871C199.027 20.1871 198.722 19.6404 198.722 18.4263V14.8404H201.029V12.5328H198.786V9.37305L195.57 10.3459V12.4685H193.624V14.8404H195.497Z"/>
  <path fill="#212121" d="M207.461 22.1889C208.619 22.1889 209.833 22.0039 210.927 21.5778V19.2703C210.018 19.7527 209.045 20.0019 208.008 20.0019C206.432 20.0019 205.395 19.5195 205.218 18.1768H211.714V17.5657C211.714 14.7115 210.557 12.219 206.979 12.219H206.496C203.883 12.3396 201.817 14.5909 201.938 17.1959C201.938 20.3637 204.309 22.1889 207.461 22.1889ZM206.979 14.3577C207.099 14.3577 207.22 14.3577 207.341 14.3577C208.314 14.5426 208.916 15.3868 208.796 16.3597H205.154C205.218 15.2662 205.765 14.3577 206.979 14.3577Z"/>
  <path fill="#212121" d="M216.7 17.9358C216.7 16.0544 217.552 14.9609 219.072 14.9609C219.433 14.9609 219.803 15.0253 220.165 15.0815L220.286 12.3479C219.924 12.2835 219.554 12.2273 219.192 12.2273C217.914 12.1629 216.82 12.9589 216.402 14.173V12.4122H213.427V21.9479H216.708V17.9358H216.7Z"/>
  <path fill="#212121" d="M224.772 18C224.772 15.9337 225.504 15.0251 226.838 15.0251C227.747 15.0251 228.358 15.6362 228.358 17.397V22.0764H231.695V16.1266C231.695 15.9417 231.695 15.7648 231.695 15.5799C231.574 13.6342 229.934 12.1789 228.053 12.2995C226.597 12.1789 225.263 12.9668 224.587 14.2452V12.4844H221.612L221.492 22.0201H224.772V18Z"/>
  <path fill="#212121" d="M236.736 22.1894C238.014 22.2537 239.164 21.5783 239.775 20.4848C239.775 21.0316 239.839 21.514 239.839 22.0044H242.935C242.814 21.2728 242.75 20.4848 242.75 19.7612V16.1753C242.75 13.2567 240.563 12.2275 238.191 12.2275C236.856 12.2275 235.578 12.4125 234.364 12.8949V15.1381C235.337 14.6557 236.366 14.4064 237.403 14.4064C238.617 14.4064 239.59 14.7682 239.59 16.0466C239.108 15.9823 238.561 15.926 238.071 15.926C236.31 15.926 233.15 16.2878 233.15 19.2064C233.158 21.2808 234.854 22.1894 236.736 22.1894ZM238.255 17.7592H239.654C239.654 18.9733 238.746 19.9461 237.588 20.0024C236.8 20.0667 236.253 19.6969 236.253 19.0296C236.253 18.121 237.162 17.7592 238.255 17.7592Z"/>
  <path fill="#212121" d="M250.284 20.1871C249.255 20.1871 248.949 19.6404 248.949 18.4263V14.8404H251.257V12.5328H248.949V9.37305L245.733 10.3459V12.4685H243.852V14.8404H245.733V18.7881C245.733 21.0957 246.465 22.3741 249.375 22.3741C250.043 22.3741 250.774 22.3097 251.441 22.1891L251.321 20.0665C250.951 20.1228 250.646 20.1871 250.284 20.1871Z"/>
  <path fill="#212121" d="M256.234 12.4685H252.953V22.0042H256.234V12.4685Z"/>
  <path fill="#212121" d="M256.234 8.52075H252.953V10.8926H256.234V8.52075Z"/>
  <path fill="#212121" d="M263.518 22.2533C266.678 22.2533 269.041 20.4282 269.041 17.2764C269.041 14.1247 266.67 12.2996 263.518 12.2996C260.358 12.2996 257.994 14.1247 257.994 17.2764C257.994 20.3639 260.422 22.189 263.518 22.2533ZM263.582 14.5991C265.102 14.5991 265.705 15.8131 265.705 17.2684C265.705 18.6674 265.037 19.9378 263.582 19.9378C262.062 19.9378 261.459 18.7237 261.459 17.2684C261.459 15.8694 262.062 14.5991 263.582 14.5991Z"/>
  <path fill="#212121" d="M277.307 22.004H280.587V16.0542C280.587 15.8693 280.587 15.6924 280.587 15.5075C280.467 13.6261 278.826 12.1708 276.945 12.2914C275.49 12.1708 274.155 12.9588 273.48 14.2372V12.4764H270.505L270.44 22.012H273.721V18C273.721 15.9336 274.453 15.0251 275.787 15.0251C276.696 15.0251 277.307 15.6362 277.307 17.397V22.004Z"/>
  <path fill="#212121" d="M285.564 22.1894C286.842 22.31 288.056 21.6426 288.659 20.4848C288.659 21.0316 288.724 21.514 288.724 22.0044H291.699C291.578 21.2728 291.514 20.4848 291.514 19.7612V16.1753C291.514 13.2567 289.327 12.2275 286.955 12.2275C285.62 12.2275 284.342 12.4125 283.128 12.8949L283.192 15.1381C284.165 14.6557 285.194 14.4064 286.231 14.4064C287.445 14.4064 288.418 14.7682 288.418 16.0466C287.936 15.9823 287.389 15.926 286.899 15.926C285.138 15.926 281.978 16.2878 281.978 19.2064C281.986 21.2808 283.683 22.1894 285.564 22.1894ZM287.084 17.7592H288.483C288.547 18.917 287.63 19.9461 286.481 20.0024C285.693 20.0667 285.146 19.6969 285.082 19.0296C285.082 18.121 285.99 17.7592 287.084 17.7592Z"/>
  <path fill="#212121" d="M297.166 8.27979H293.886V22.0044H297.166V8.27979Z"/>
  <path fill="#212121" d="M180.254 34.2173H185.174V31.7811H180.254V28.9911H185.415V26.563H176.853V39.3148H180.254V34.2173Z"/>
  <path fill="#212121" d="M190.456 29.7791H187.176V39.3147H190.456V29.7791Z"/>
  <path fill="#212121" d="M190.456 25.8955H187.176V28.2674H190.456V25.8955Z"/>
  <path fill="#212121" d="M199.509 34.6352V39.2503H202.79V33.3006C202.79 33.1156 202.79 32.9388 202.79 32.7538C202.669 30.8724 201.029 29.4171 199.148 29.5377C197.692 29.4734 196.358 30.2694 195.682 31.5398V29.779H192.707H192.643V39.2503H195.923V35.2383C195.923 33.1719 196.655 32.2634 197.99 32.2634C198.898 32.2714 199.509 32.8744 199.509 34.6352Z"/>
  <path fill="#212121" d="M210.927 39.3147H214.022C213.902 38.5831 213.837 37.7951 213.837 37.0715V33.4856C213.837 30.567 211.65 29.5378 209.279 29.5378C207.944 29.4735 206.665 29.7227 205.451 30.2052V32.4484C206.36 31.966 207.453 31.7167 208.491 31.7167C209.705 31.7167 210.678 32.0785 210.678 33.3569C210.195 33.2926 209.648 33.2363 209.158 33.2363C207.397 33.2363 204.237 33.5981 204.237 36.5167C204.237 38.5831 205.934 39.4916 207.823 39.4916C209.102 39.5559 210.251 38.8805 210.862 37.7871C210.862 38.3418 210.927 38.8323 210.927 39.3147ZM208.676 37.369C207.944 37.4333 207.397 37.0072 207.341 36.3961C207.341 35.4876 208.249 35.1177 209.343 35.1177H210.678C210.742 36.2755 209.833 37.3127 208.676 37.369Z"/>
  <path fill="#212121" d="M222.408 34.6996V39.3146H225.745V33.3649C225.745 33.18 225.745 33.0031 225.745 32.8181C225.624 30.8724 223.984 29.4171 222.103 29.5377C220.647 29.4734 219.313 30.2694 218.637 31.5398V29.779H215.662L215.598 39.3146H218.814V35.3026C218.814 33.2362 219.546 32.3277 220.881 32.3277C221.797 32.3277 222.408 32.9388 222.408 34.6996Z"/>
  <path fill="#212121" d="M233.279 37.1279H233.214C231.815 37.1922 230.666 36.0344 230.601 34.6354C230.601 34.5148 230.601 34.3942 230.601 34.3299C230.666 32.9952 231.815 31.9018 233.15 31.958C233.882 31.958 234.549 32.143 235.152 32.5048L235.337 30.1329C234.549 29.7711 233.64 29.5862 232.724 29.5862C229.564 29.5862 227.2 31.4113 227.2 34.5631C227.2 37.7148 229.572 39.54 232.724 39.54C233.632 39.54 234.549 39.4194 235.393 39.1138L235.329 36.6857C234.67 37.0073 234.002 37.1279 233.279 37.1279Z"/>
  <path fill="#212121" d="M246.095 35.0616C246.095 32.2073 244.937 29.7148 241.359 29.7148H240.812C238.199 29.8354 236.133 32.0224 236.254 34.6355C236.254 37.7309 238.625 39.6123 241.777 39.6123C242.935 39.6123 244.149 39.4274 245.243 39.0013V36.6455C244.334 37.1279 243.361 37.3772 242.324 37.3772C240.748 37.3772 239.711 36.8948 239.534 35.552L246.095 35.6726V35.0616V35.0616ZM239.47 33.6706C239.534 32.5772 239.952 31.6686 241.295 31.6686C242.629 31.6686 243.12 32.5772 243.12 33.6706H239.47Z"/>
  <path fill="#212121" d="M263.582 36.2757C262.609 36.7018 261.516 36.943 260.422 36.943H260.06C257.817 36.943 255.992 35.0616 255.992 32.8103C255.992 30.5671 257.874 28.742 260.125 28.742C261.283 28.742 262.432 29.0475 263.461 29.6505L263.767 26.9168C262.553 26.4907 261.275 26.3058 260.004 26.2495C255.815 26.2495 252.72 28.4927 252.72 32.9309C252.72 37.7872 256.667 39.4917 260.068 39.4917C261.347 39.4917 262.617 39.3711 263.831 39.0093L263.582 36.2757Z"/>
  <path fill="#212121" d="M270.143 29.6023C266.983 29.6023 264.619 31.4274 264.619 34.5792C264.619 37.7309 266.991 39.5561 270.143 39.5561C273.303 39.5561 275.666 37.7309 275.666 34.5792C275.666 31.4274 273.303 29.6023 270.143 29.6023ZM270.143 37.2485C268.623 37.2485 268.02 35.9701 268.02 34.5792C268.02 33.1802 268.631 31.9098 270.143 31.9098C271.654 31.9098 272.265 33.1882 272.265 34.5792C272.265 35.9782 271.662 37.2485 270.143 37.2485Z"/>
  <path fill="#212121" d="M280.105 31.5396V29.7788H277.13V39.3145H280.41V35.3024C280.41 33.421 281.263 32.3275 282.782 32.3275C283.144 32.3275 283.514 32.3275 283.876 32.4482L283.996 29.6582C283.634 29.5939 283.265 29.5376 282.903 29.5376C281.681 29.5376 280.523 30.3255 280.105 31.5396Z"/>
  <path fill="#212121" d="M291.763 29.538C290.308 29.4174 288.909 30.2053 288.177 31.4837V29.7792H285.138L285.202 43.142H288.482V37.9802C289.15 38.9531 290.243 39.4998 291.457 39.4355C294.312 39.4355 295.831 37.0636 295.831 34.2737C295.831 32.0305 294.376 29.538 291.763 29.538ZM292.43 34.3943C292.43 35.9139 291.642 36.943 290.428 36.943C289.214 36.8224 288.362 35.7853 288.426 34.5712C288.426 33.1159 289.214 32.0787 290.428 32.0787V32.0144H290.613C291.763 32.1511 292.615 33.2445 292.43 34.3943Z"/>
  <path fill="#212121" d="M302.272 29.6023C299.112 29.6023 296.748 31.4274 296.748 34.5792C296.748 37.7309 299.12 39.5561 302.272 39.5561C305.423 39.5561 307.795 37.7309 307.795 34.5792C307.795 31.4274 305.423 29.6023 302.272 29.6023ZM302.328 37.2485C300.808 37.2485 300.205 35.9701 300.205 34.5792C300.205 33.1802 300.816 31.9098 302.328 31.9098C303.84 31.9098 304.451 33.1882 304.451 34.5792C304.459 35.9782 303.848 37.2485 302.328 37.2485Z"/>
  <path fill="#212121" d="M312.29 31.5396V29.7788H309.315V39.3145H312.595V35.3024C312.595 33.421 313.448 32.3275 314.967 32.3275C315.329 32.3275 315.699 32.3275 316.061 32.4482L316.181 29.6582C315.819 29.5939 315.45 29.5376 315.088 29.5376C313.809 29.5376 312.716 30.3255 312.29 31.5396Z"/>
  <path fill="#212121" d="M326.32 33.4856C326.32 30.567 324.133 29.5378 321.761 29.5378C320.426 29.4735 319.148 29.7227 317.934 30.2052V32.4484C318.842 31.966 319.936 31.7167 320.973 31.7167C322.187 31.7167 323.16 32.0785 323.16 33.3569C322.677 33.2926 322.131 33.2363 321.64 33.2363C319.88 33.2363 316.72 33.5981 316.72 36.5167C316.72 38.5831 318.416 39.4916 320.306 39.4916C321.584 39.5559 322.734 38.8805 323.345 37.7871C323.345 38.3338 323.409 38.8162 323.409 39.3067H326.505C326.384 38.575 326.32 37.7871 326.32 37.0634V33.4856V33.4856ZM321.158 37.369L321.094 37.4333C320.362 37.4333 319.759 37.0715 319.759 36.4042C319.759 35.4956 320.667 35.1258 321.761 35.1258H323.16C323.224 36.3398 322.308 37.3127 321.158 37.369Z"/>
  <path fill="#212121" d="M333.853 37.3689C332.824 37.3689 332.519 36.8222 332.519 35.6081V32.0222H334.826V29.7789H332.519V26.6191L329.303 27.6483V29.7709H327.357V32.0141H329.238V35.9619C329.238 38.2694 329.97 39.5478 332.881 39.5478C333.548 39.5478 334.28 39.4835 334.947 39.3629L334.826 37.2403C334.521 37.3126 334.215 37.3689 333.853 37.3689Z"/>
  <path fill="#212121" d="M339.739 29.7791H336.458V39.3147H339.739V29.7791Z"/>
  <path fill="#212121" d="M339.739 25.8955H336.458V28.2674H339.739V25.8955Z"/>
  <path fill="#212121" d="M347.088 29.6023C343.928 29.6023 341.564 31.4274 341.564 34.5792C341.564 37.7309 343.936 39.5561 347.088 39.5561C350.239 39.5561 352.611 37.7309 352.611 34.5792C352.611 31.4274 350.247 29.6023 347.088 29.6023ZM347.088 37.2485C345.568 37.2485 344.965 35.9701 344.965 34.5792C344.965 33.1802 345.576 31.9098 347.088 31.9098C348.599 31.9098 349.21 33.1882 349.21 34.5792C349.218 35.9782 348.607 37.2485 347.088 37.2485Z"/>
  <path fill="#212121" d="M360.636 29.538C359.116 29.4174 357.717 30.2053 357.05 31.54V29.7792H354.075L354.139 39.2506H357.419V35.2385C357.419 33.1722 358.151 32.2636 359.486 32.2636C360.394 32.2636 361.005 32.8747 361.005 34.6355V39.2506H364.286V33.3008C364.286 33.1159 364.286 32.939 364.286 32.7541C364.157 30.8727 362.517 29.4174 360.636 29.538Z"/>
  <path fill="#212121" d="M164.953 8.10254C164.591 8.10254 164.342 8.40807 164.342 8.71359V55.9016C164.342 56.2071 164.583 56.4483 164.888 56.4483C164.953 56.4483 164.953 56.4483 165.009 56.4483C165.315 56.4483 165.556 56.2071 165.556 55.9016V8.70555C165.556 8.34375 165.315 8.10254 164.953 8.10254Z"/>
  <path fill="#212121" d="M59.6985 19.0293C59.0312 19.3911 58.6694 20.1871 58.9668 20.9107C61.395 26.6835 61.9417 33.1157 60.4221 39.1941C59.996 40.6494 59.2081 41.9841 58.1789 43.1419V41.566C58.0583 35.4956 56.5387 29.4815 53.6844 24.0785C55.7508 22.374 57.1498 20.0102 57.6965 17.3971C57.8171 16.6092 57.3347 15.8212 56.4825 15.6363C55.6945 15.5157 54.9066 15.9981 54.7216 16.8504C54.4161 18.6112 53.5075 20.2514 52.2291 21.4655C51.803 20.7338 51.3769 20.0665 50.8945 19.3428C48.3458 15.6363 45.3066 12.2996 41.7206 9.50162C45.9096 9.68655 50.0422 10.78 53.7488 12.782C54.2955 13.0876 54.9628 13.0232 55.4533 12.6614C56.0643 12.1147 56.1207 11.2061 55.6382 10.5951C50.8945 3.84936 42.5166 0.142822 32.193 0.142822C14.4563 0.142822 0.0642863 14.5348 0.0642863 32.2715H0C0 35.2464 0.361817 38.2212 1.21408 41.0755L1.33465 41.6223V41.7429C6.49647 58.6836 24.4101 68.2193 41.3588 63.0574C44.5186 62.0846 47.4292 60.6856 50.1629 58.8042L50.3478 58.7399C50.6533 58.4986 50.9588 58.3137 51.2563 58.0725C57.2061 53.6424 61.5236 47.2584 63.2844 40.0383C63.405 39.6765 63.4694 39.371 63.59 39.0092V38.768C64.9246 32.3921 64.2573 25.7107 61.7086 19.6966C61.3387 18.973 60.4302 18.6675 59.6985 19.0293ZM48.2814 21.0956C48.7638 21.8273 49.2543 22.5509 49.6804 23.2825C47.0111 24.7378 44.0362 25.5258 40.997 25.6544C40.8121 20.8544 40.209 16.0624 39.1156 11.383L39.1799 11.5036C42.6935 14.173 45.797 17.3891 48.2814 21.0956ZM43.8513 5.30464C45.3709 5.91569 46.8905 6.75991 48.2251 7.6765C45.9176 7.06544 43.4895 6.76795 41.1176 6.58303C41.9699 6.03629 42.8784 5.54584 43.8513 5.30464ZM39.9598 4.02624C39.0513 4.50865 38.199 5.05539 37.4111 5.73077C37.0492 4.87851 36.6231 4.09056 36.1327 3.35891C37.4111 3.47951 38.6895 3.72875 39.9598 4.02624ZM25.7528 25.8313C27.996 26.8042 30.3116 27.5921 32.6754 28.0745C34.5005 28.4363 36.3819 28.6856 38.199 28.7418V32.2072C38.2634 38.0363 37.7729 43.8655 36.8 49.6383C34.0663 49.5177 31.3327 49.1559 28.7196 48.6092C25.1337 47.8775 21.6764 46.7278 18.396 45.2082C19.7307 39.4353 21.797 33.8474 24.4101 28.5087C24.8442 27.5921 25.3266 26.6835 25.7528 25.8313ZM20.5266 18.973C19.3688 17.9438 18.4603 16.7298 17.7367 15.3871C20.591 13.6262 23.6864 12.2916 26.9105 11.3187C28.8563 10.772 30.8583 10.2896 32.8603 9.98404C29.7005 13.6263 26.9105 17.6383 24.5387 21.8916C23.0754 21.0956 21.7407 20.1227 20.5266 18.973ZM38.0784 25.775C36.5025 25.7107 34.8623 25.5338 33.3427 25.1639L33.2221 25.0433C31.1558 24.6172 29.0894 24.0142 27.1517 23.2182C29.5799 18.7881 32.5548 14.6554 35.9558 10.9489C37.1055 15.8132 37.8372 20.7901 38.0784 25.775ZM32.0643 3.1177C32.5468 3.1177 33.2221 3.72876 33.8894 4.94283C33.5276 4.82222 33.2221 4.6373 32.8603 4.51669C31.5819 4.03428 30.2473 3.60815 28.8483 3.30262C29.9417 3.18202 30.9709 3.1177 32.0643 3.1177ZM16.8844 10.5308C17.2462 8.89057 18.2191 7.43529 19.6181 6.46243C23.5015 5.43328 27.6985 5.73077 31.397 7.25037C26.2352 8.10263 21.3146 9.91971 16.7638 12.4765C16.6995 11.8011 16.6995 11.1338 16.8844 10.5308ZM14.0945 9.4373C14.0945 9.62223 14.0302 9.74283 13.9739 9.91971C13.6684 11.3187 13.7326 12.8383 14.0945 14.2293C10.9347 16.3519 8.14469 18.9649 5.89344 22.0041C5.2261 22.8564 4.61508 23.765 4.06834 24.7378C5.65226 18.6675 9.17385 13.3207 14.0945 9.4373ZM14.5769 55.4112C9.53569 51.7047 5.89348 46.3017 4.13268 40.2313C3.89147 39.2584 3.70652 38.2856 3.65024 37.2564C4.7437 38.776 5.9578 40.175 7.29247 41.3891C9.60001 43.5117 12.1487 45.2725 14.9467 46.7358C14.3357 49.5821 14.2151 52.5569 14.5769 55.4112ZM9.29448 39.1941C6.98694 37.1921 5.22615 34.6996 4.13268 31.9097C4.92062 28.9348 6.31958 26.1368 8.26531 23.7087C10.2673 21.0956 12.6392 18.8524 15.2522 16.971C16.1045 18.4906 17.2543 19.8896 18.5327 21.1036C19.9317 22.382 21.4513 23.5318 23.1477 24.4403C22.6653 25.3489 22.2392 26.2655 21.7487 27.174C19.1357 32.4564 17.1337 37.9881 15.6784 43.6966C13.3628 42.4745 11.2402 40.9549 9.29448 39.1941ZM32.193 61.361H31.9518C27.6422 61.361 23.3889 60.3318 19.5618 58.5067C19.4412 58.4424 19.3769 58.3861 19.2563 58.3218C17.6161 57.5338 16.8844 53.8273 17.801 48.1831C21.1377 49.6383 24.5387 50.7961 28.1246 51.5198C30.8583 52.0665 33.592 52.4283 36.3256 52.6132C34.9829 58.3861 33.2784 61.361 32.193 61.361ZM49.3749 55.773C45.5477 58.563 41.1739 60.3881 36.5025 61.1198C37.9015 58.5067 38.8744 55.7167 39.4211 52.7981L39.3568 52.6775C43.3689 52.6775 47.3166 52.0665 51.1357 50.7961C52.0442 50.4906 52.8965 50.1851 53.6844 49.8233C52.7759 52.1308 51.3206 54.1971 49.3749 55.773ZM54.7779 45.8112C53.3227 46.6635 51.7387 47.3871 50.1629 47.9338C46.8262 49.0273 43.4252 49.574 39.8955 49.6383C40.804 43.8655 41.2945 38.0363 41.2302 32.2072V28.6856C44.7518 28.5006 48.1528 27.5278 51.192 25.8313C53.6844 30.6876 55.0754 36.0986 55.1397 41.5579C55.1477 42.9569 55.0272 44.4202 54.7779 45.8112Z"/>
</svg>
