<svg xmlns="http://www.w3.org/2000/svg" fill="none" viewBox="0 0 19 18">
  <path fill="currentColor" d="M0.189438 6.06211H3.97825V17.9969H0.189438V6.06211ZM2.08385 0C3.22049 0 4.16769 0.947205 4.16769 2.08385C4.16769 3.22049 3.22049 4.1677 2.08385 4.1677C0.947201 4.1677 0 3.22049 0 2.08385C0 0.947205 0.947201 0 2.08385 0Z"/>
  <path fill="currentColor" d="M6.44141 6.06516H10.0408V7.58069C10.6091 6.63348 11.7458 5.68628 13.6402 5.68628C17.429 5.68628 18.1867 8.14901 18.1867 11.3695V17.9999H14.3979V12.1273C14.3979 10.8012 14.3979 8.90677 12.5035 8.90677C10.6091 8.90677 10.2302 10.4223 10.2302 11.9378V17.8105H6.44141V6.06516Z"/>
</svg>
