<svg xmlns="http://www.w3.org/2000/svg" viewBox="0 0 99 27">
  <path fill="currentColor" d="M0 21.597V0h4.108v21.597H0zM17.664 21.597v-8.139c0-3.3-1.122-5.06-3.369-5.06-1.232 0-3.45.8-3.45 4.348v8.85H6.86V5.4h3.697v1.4c1.323-1.256 2.67-1.956 4.589-1.956 2.16 0 6.507 1.312 6.507 7.2v9.554h-3.99zM24.976 21.597V8.843h-2.383V5.399h2.383V0h3.989v21.597h-3.989zM30.665 21.597V5.399h3.66v1.432h.058c1.051-1.52 1.918-2 3.808-2h.09v3.764c-2.399.088-3.627 1.344-3.627 3.767v9.235h-3.989zM42.036 15.238c.3 1.427 2.128 3.327 4.584 3.327 1.644 0 3.028-.644 3.837-2.072h4.198a8.483 8.483 0 0 1-3.811 4.485 8.855 8.855 0 0 1-5.888 1.01 8.705 8.705 0 0 1-5.155-2.948 8.288 8.288 0 0 1-1.963-5.498c0-4.8 3.697-8.695 8.754-8.695 1.139-.011 2.269.2 3.323.62a8.56 8.56 0 0 1 2.816 1.828 8.3 8.3 0 0 1 1.865 2.748 8.122 8.122 0 0 1 .622 3.239 9.256 9.256 0 0 1-.242 1.956h-12.94zm9.082-3.124c-.41-2.336-2.053-3.707-4.518-3.707-2.19 0-4.047 1.227-4.68 3.707h9.198zM56.57 27V5.403h3.66v1.9h.057a6.447 6.447 0 0 1 2.392-1.866 6.625 6.625 0 0 1 3.006-.586c4.888 0 8.335 4 8.335 8.58 0 4.758-3.627 8.698-8.335 8.698-2.128 0-3.537-.552-5.127-2.072V27H56.57zM70.03 13.486c0-2.628-2.009-5.08-4.827-5.08-2.756 0-4.884 2.276-4.884 5.08 0 3.416 2.757 5.08 4.856 5.08 2.727 0 4.855-2.396 4.855-5.08zM75.996 3.56V0h3.985v3.56h-3.985zm0 18.037V5.399h3.985v16.198h-3.985zM95.344 21.597v-2h-.041c-1.08 1.632-3.118 2.508-5.307 2.508-4.646 0-8.483-3.796-8.483-8.611a8.29 8.29 0 0 1 .597-3.27 8.468 8.468 0 0 1 1.84-2.797 8.729 8.729 0 0 1 2.802-1.896 8.922 8.922 0 0 1 3.334-.704 6.537 6.537 0 0 1 2.69.474c.85.345 1.615.866 2.24 1.526V0H99v21.597h-3.656zm-.041-8.111c0-2.688-2.12-5.087-4.93-5.087-2.518 0-4.888 2.275-4.888 4.963 0 2.86 2.16 5.2 4.93 5.2 2.768 0 4.888-2.304 4.888-5.076z"/>
</svg>
