<svg xmlns="http://www.w3.org/2000/svg" fill="none" viewBox="0 0 48 48">
  <path fill="currentColor" fill-rule="evenodd" d="M4 24C4 12.96 12.94 4 23.98 4C35.04 4 44 12.96 44 24C44 35.04 35.04 44 23.98 44C12.94 44 4 35.04 4 24ZM31.9401 15.9999H37.8401C35.9201 12.6999 32.8601 10.1399 29.1801 8.87994C30.3801 11.0999 31.3001 13.4999 31.9401 15.9999ZM24.0001 8.08004C25.6601 10.48 26.9601 13.14 27.8201 16H20.1801C21.0401 13.14 22.3401 10.48 24.0001 8.08004ZM8 24C8 25.38 8.2 26.72 8.52 28H15.28C15.12 26.68 15 25.36 15 24C15 22.64 15.12 21.32 15.28 20H8.52C8.2 21.28 8 22.62 8 24ZM10.1601 32H16.0601C16.7001 34.5 17.6201 36.9 18.8201 39.12C15.1401 37.86 12.0801 35.32 10.1601 32ZM10.1601 15.9999H16.0601C16.7001 13.4999 17.6201 11.0999 18.8201 8.87994C15.1401 10.1399 12.0801 12.6799 10.1601 15.9999ZM24.0001 39.92C22.3401 37.52 21.0401 34.86 20.1801 32H27.8201C26.9601 34.86 25.6601 37.52 24.0001 39.92ZM19.32 28H28.68C28.86 26.68 29 25.36 29 24C29 22.64 28.86 21.3 28.68 20H19.32C19.14 21.3 19 22.64 19 24C19 25.36 19.14 26.68 19.32 28ZM29.1801 39.12C30.3801 36.9 31.3001 34.5 31.9401 32H37.8401C35.9201 35.3 32.8601 37.86 29.1801 39.12ZM33.0001 24C33.0001 25.36 32.8801 26.68 32.7201 28H39.4801C39.8001 26.72 40.0001 25.38 40.0001 24C40.0001 22.62 39.8001 21.28 39.4801 20H32.7201C32.8801 21.32 33.0001 22.64 33.0001 24Z" clip-rule="evenodd"/>
</svg>
