<svg xmlns="http://www.w3.org/2000/svg" fill="none" viewBox="0 0 48 48">
  <path fill="currentColor" fill-rule="evenodd" d="M4 6H44C46.2 6 48 7.8 48 10L47.98 38C47.98 40.2 46.2 42 44 42H4C1.8 42 0 40.2 0 38V10C0 7.8 1.8 6 4 6ZM44 38V10H4V38H44ZM42 12H28V22H42V12ZM35 19.5L40 16V14L35 17.5L30 14V16L35 19.5ZM18 24C21.3 24 24 21.3 24 18C24 14.7 21.3 12 18 12C14.7 12 12 14.7 12 18C12 21.3 14.7 24 18 24ZM20 18C20 16.9 19.1 16 18 16C16.9 16 16 16.9 16 18C16 19.1 16.9 20 18 20C19.1 20 20 19.1 20 18ZM30 33.18C30 28.18 22.06 26.02 18 26.02C13.94 26.02 6 28.18 6 33.18V36H30V33.18ZM18 30C15.4 30 12.44 31 10.96 32H25.04C23.54 30.98 20.6 30 18 30Z" clip-rule="evenodd"/>
</svg>
