<svg xmlns="http://www.w3.org/2000/svg" fill="none" viewBox="0 0 48 48">
  <path fill="currentColor" d="M40.3392 33.4382C40.9414 33.4382 41.4295 32.9501 41.4295 32.348C41.4295 31.7459 40.9414 31.2578 40.3392 31.2578C39.7371 31.2578 39.249 31.7459 39.249 32.348C39.249 32.9501 39.7371 33.4382 40.3392 33.4382Z"/>
  <path fill="currentColor" d="M47.6439 25.0416C45.6815 23.0792 42.8468 22.2069 40.1211 22.4251C39.7941 21.1167 39.249 18.2821 38.5948 15.3385L41.2114 15.9926C41.5384 16.1017 41.8655 15.9926 42.1926 15.7746C42.4106 15.5566 42.6287 15.2295 42.6287 14.9024V8.36095C42.6287 8.03387 42.5197 7.70679 42.1926 7.48876C41.8655 7.27074 41.5384 7.27074 41.2114 7.27074L36.7413 8.14293C36.0872 6.50751 34.8879 4 31.6172 4C31.3991 4 31.181 4.10906 30.963 4.21802L27.6923 6.39855C27.1472 6.72563 27.0381 7.3798 27.3652 7.92491C27.6923 8.47001 28.3464 8.57907 28.8915 8.25199L31.9443 6.18052C33.6886 6.28958 34.3428 7.81594 34.8879 9.56032L34.997 9.77835C35.215 10.3235 35.7601 10.6505 36.1962 10.5415L40.3392 9.66929V13.4851L37.2865 12.722C36.9594 12.6129 36.5232 12.722 36.3052 13.0491C36.0872 13.3762 35.8691 13.7033 35.9781 14.0303C36.7413 17.4101 37.6135 21.1169 37.9405 22.7523C36.3051 23.1885 34.6698 24.0607 33.3615 25.3689C32.7073 26.0231 32.1622 26.7862 31.726 27.5494C31.399 28.0945 31.617 28.7487 32.1622 29.0758C32.7073 29.4029 33.3615 29.1848 33.6885 28.6396C34.0156 27.9855 34.4518 27.4404 34.9969 26.8953C37.6134 24.2787 41.8654 23.7336 44.8091 25.478L33.6885 30.2751C32.7073 30.7112 32.0531 31.0382 31.6171 31.2563H16.3537H5.45126H2.18052C2.28958 24.3878 3.16177 21.4441 7.63179 21.4441C8.06793 21.4441 8.39492 21.2261 8.61304 20.7899C8.83106 20.4628 8.72209 20.0268 8.50398 19.6997L6.54157 17.0831H18.5343C19.1885 17.0831 19.6245 17.5193 19.6245 18.1734V25.8048C19.6245 26.4589 20.0607 26.895 20.7147 26.895H27.3653C29.0007 26.895 30.636 26.1318 31.6173 24.8235L33.5797 22.425C34.4519 21.3348 34.888 19.9174 34.7789 18.5001L33.7977 9.34202C33.6886 8.79691 33.2526 8.36077 32.5984 8.36077C32.0533 8.46983 31.5082 8.90587 31.6172 9.56004L32.4894 18.7181C32.5984 19.5903 32.2713 20.4625 31.8352 21.1166L29.8728 23.5152C29.2186 24.2783 28.3464 24.7145 27.3652 24.7145H21.805V18.173C21.805 16.3195 20.3877 14.9022 18.5342 14.9022H4.36095C3.92481 14.9022 3.59782 15.1203 3.3797 15.5564C3.16159 15.9926 3.27064 16.3195 3.48876 16.6466L5.56023 19.4813C0 20.6806 0 27.1131 0 32.3462C0 33.0004 0.436142 33.4365 1.09021 33.4365H4.47001C5.01512 36.4892 7.63169 38.8877 10.9025 38.8877C14.1733 38.8877 16.7898 36.4892 17.335 33.4365H31.6173C31.7263 33.4365 31.9443 33.4365 32.0534 33.3274C32.0534 33.3274 32.8166 33.0003 33.7978 32.5643C33.9068 36.053 36.8505 38.8877 40.3393 38.8877C43.9371 38.8877 46.8807 35.9441 46.8807 32.3462C46.8807 30.6019 46.2266 28.9664 45.0273 27.7672C46.4446 27.2221 47.3168 26.7859 47.3168 26.7859C47.6439 26.6769 47.8619 26.3498 47.971 26.0228C48.08 25.6957 47.8619 25.2597 47.6439 25.0416ZM10.9025 36.7073C8.83106 36.7073 7.19564 35.29 6.65054 33.4366H15.0455C14.6093 35.29 12.974 36.7073 10.9025 36.7073ZM40.3392 36.7073C37.9406 36.7073 35.9782 34.7449 35.9782 32.3463C35.9782 32.1283 35.9782 31.9102 36.0873 31.5832C38.1587 30.711 40.7753 29.6208 42.8468 28.6396C42.8468 28.7486 42.9558 28.8576 42.9558 28.8576C44.0461 29.7298 44.7002 30.929 44.7002 32.3463C44.7002 34.7448 42.7377 36.7073 40.3392 36.7073Z"/>
  <path fill="currentColor" d="M9.8125 26.8984H5.45154C4.79738 26.8984 4.36133 27.3346 4.36133 27.9887C4.36133 28.6427 4.79747 29.0789 5.45154 29.0789H9.8125C10.4667 29.0789 10.9027 28.6427 10.9027 27.9887C10.9027 27.3346 10.4667 26.8984 9.8125 26.8984Z"/>
</svg>
