<svg xmlns="http://www.w3.org/2000/svg" fill="none" viewBox="0 0 48 48">
  <path fill="currentColor" d="M30.3468 12.8994C27.2941 12.8994 24.8955 15.298 24.8955 18.3508C24.8955 21.4035 27.2941 23.8021 30.3468 23.8021C33.3996 23.8021 35.7982 21.4035 35.7982 18.3508C35.7982 15.298 33.3996 12.8994 30.3468 12.8994ZM30.3468 21.6215C28.4934 21.6215 27.0761 20.2042 27.0761 18.3508C27.0761 16.4973 28.4934 15.08 30.3468 15.08C32.2003 15.08 33.6176 16.4973 33.6176 18.3508C33.6176 20.2042 32.2003 21.6215 30.3468 21.6215Z"/>
  <path fill="currentColor" d="M36.0161 31.438C34.9259 31.438 33.8356 31.8742 33.0724 32.6373L32.5273 33.1824V29.6936L39.396 22.825C44.0841 18.1369 46.7008 11.9223 46.7008 5.27176C46.7008 3.41829 45.2835 2.00098 43.43 2.00098C36.7794 2.00098 30.5649 4.61758 25.8768 9.30578L19.0081 16.1744H15.5193L16.0644 15.6293C16.8276 14.8662 17.2637 13.7759 17.2637 12.6856C17.2637 10.3961 15.4102 8.54264 13.1207 8.54264C12.0305 8.54264 10.9402 8.97879 10.177 9.74193L2.32711 17.5918C1.89096 18.028 1.89096 18.6821 2.32711 19.1182L6.68813 23.4792C6.90615 23.6973 7.12427 23.8063 7.45136 23.8063C7.77845 23.8063 7.99648 23.6973 8.2145 23.4792L9.63182 22.0619L11.3762 23.8063C10.286 25.1147 10.286 27.0771 11.4853 28.2764L11.9214 28.7125H11.8124C10.7221 29.0396 9.63182 29.6938 8.86868 30.566C8.43253 31.0022 8.43253 31.6562 8.86868 32.0924L16.5006 39.7243C16.7186 39.9423 17.0457 40.0514 17.2637 40.0514C17.5908 40.0514 17.8088 39.9423 18.0269 39.7243C18.8991 38.8521 19.4442 37.8708 19.8803 36.7806V36.6715L20.3165 37.1077C21.5158 38.307 23.4782 38.416 24.7865 37.2167L26.531 38.9611L25.1136 40.3785C24.6775 40.8146 24.6775 41.4687 25.1136 41.9048L29.4746 46.2658C29.6927 46.4839 30.0198 46.5929 30.2378 46.5929C30.5649 46.5929 30.7829 46.4839 31.0009 46.2658L38.8508 38.4159C39.6141 37.6528 40.0501 36.5625 40.0501 35.4722C40.1592 33.2915 38.3057 31.438 36.0161 31.438ZM43.43 4.18144C44.0842 4.18144 44.5202 4.61758 44.5202 5.27167C44.5202 7.99733 43.9751 10.723 43.1029 13.2305L35.5801 5.70772C37.9786 4.72655 40.7043 4.18144 43.43 4.18144ZM7.45127 21.1895L4.61654 18.3548L11.7032 11.2681C12.0303 10.941 12.5754 10.723 13.1205 10.723C14.2108 10.723 15.083 11.5952 15.083 12.6854C15.083 13.2305 14.8649 13.7757 14.5379 14.1028L7.45127 21.1895ZM17.8087 36.1262C17.6997 36.5624 17.4816 36.9984 17.1546 37.4346L11.2672 31.5472C11.7033 31.3291 12.1394 31.111 12.5755 30.893L13.7748 30.4569L18.2449 34.9269L17.8087 36.1262ZM25.6587 35.0359C25.2225 34.5997 24.5684 34.5997 24.1323 35.0359L23.4781 35.6901C23.042 36.1262 22.3879 36.1262 21.9517 35.6901L13.0116 26.7499C12.5754 26.3138 12.5754 25.6597 13.0116 25.2235L13.6657 24.5694C14.1019 24.1332 14.1019 23.4791 13.6657 23.043L11.1581 20.5354L13.3387 18.3548H16.8275L15.4102 19.7721C14.974 20.2083 14.974 20.8623 15.4102 21.2985C15.8463 21.7346 16.5004 21.7346 16.9365 21.2985L27.4031 10.8321C29.1475 9.08766 31.11 7.67034 33.2905 6.58002L42.1216 15.4112C41.0314 17.5918 39.614 19.5542 37.8696 21.2986L27.4031 31.7651C26.9669 32.2013 26.9669 32.8553 27.4031 33.2915C27.6211 33.5095 27.9482 33.6186 28.1662 33.6186C28.3842 33.6186 28.7113 33.5095 28.9294 33.2915L30.3468 31.8742L30.3468 35.363L28.1662 37.5435L25.6587 35.0359ZM37.4335 36.9984L30.3468 44.0851L27.5121 41.2504L34.5988 34.1637C34.9259 33.8366 35.471 33.6186 36.0161 33.6186C37.1063 33.6186 37.9786 34.4908 37.9786 35.581C37.9786 36.1262 37.7606 36.6713 37.4335 36.9984Z"/>
  <path fill="currentColor" d="M25.6582 30.6787L18.0263 23.0468C17.5902 22.6107 16.9361 22.6107 16.5 23.0468C16.0638 23.483 16.0638 24.1371 16.5 24.5732L24.1319 32.2051C24.3499 32.4231 24.677 32.5322 24.895 32.5322C25.2221 32.5322 25.4401 32.4231 25.6582 32.2051C26.0943 31.769 26.0943 31.1148 25.6582 30.6787Z"/>
</svg>
