<svg xmlns="http://www.w3.org/2000/svg" fill="none" viewBox="0 0 114 80">
  <path fill="#212121" d="M109.449 41.1696C110.03 41.1218 110.603 41.0264 111.199 40.9468C111.16 40.3342 111.08 39.7137 110.698 39.1887C110.587 39.0375 110.388 38.9182 110.213 38.8545C109.871 38.7431 109.616 38.5602 109.473 38.242C109.282 37.8124 108.924 37.5817 108.518 37.3828C108.192 37.2237 107.858 37.0327 107.595 36.7941C106.824 36.0781 106.418 35.1234 106.068 34.1608C105.941 33.8028 105.718 33.6676 105.376 33.6516C105.233 33.6437 105.082 33.6755 104.938 33.6835C104.549 33.7153 104.159 33.7789 103.793 33.5641C103.371 33.3175 102.949 33.0789 102.528 32.8243C102.154 32.6015 101.979 32.2197 102.074 31.798C102.114 31.615 102.17 31.4321 102.257 31.273C102.878 30.1512 103.117 28.942 103.117 27.6691C103.117 27.4702 103.117 27.2634 103.117 27.0486C103.22 27.0566 103.292 27.0645 103.355 27.0725C104.612 27.2714 105.877 27.4066 107.142 27.0963C108.638 26.7304 109.72 25.8791 110.078 24.3119C110.324 23.2061 110.117 22.1321 109.68 21.1059C109.226 20.0398 108.542 19.2045 107.468 18.6635C107.007 18.4328 106.617 18.0191 106.251 17.6373C105.941 17.3191 106.044 16.794 106.434 16.5792C106.681 16.444 106.975 16.3724 107.261 16.3246C107.588 16.2689 107.93 16.2928 108.256 16.2451C109.409 16.0541 110.316 15.5211 110.714 14.3437C110.969 13.5879 110.953 12.8083 110.77 11.973C109.871 12.9197 108.749 13.3811 107.58 13.7152C107.031 13.8743 106.45 13.9141 105.893 14.0414C104.389 14.3835 103.864 15.8791 104.087 16.8179C104.23 17.4145 104.588 17.86 105.05 18.2499C105.869 18.942 106.673 19.658 107.476 20.374C108.049 20.8911 108.407 21.5514 108.638 22.2753C109.083 23.6914 108.574 24.9324 107.277 25.4893C106.84 25.6803 106.338 25.8155 105.869 25.8075C103.713 25.7598 101.923 24.7415 100.42 23.3254C99.1229 22.1083 97.675 21.4639 95.9248 21.44C94.986 21.432 94.1348 21.1616 93.3472 20.6842C93.1006 20.5331 92.8778 20.3262 92.6949 20.1114C91.5413 18.751 90.1014 18.0191 88.2955 18.0191C87.667 18.0191 87.0624 17.8839 86.7283 17.2475C86.6805 17.16 86.6089 17.0884 86.5453 17.0168C85.7497 16.0939 84.6996 15.5927 83.554 15.2666C83.0449 15.1234 82.5198 15.0438 82.0266 14.8688C81.0321 14.5187 80.1252 14.0096 79.266 13.405C79.2103 13.3652 79.1626 13.3334 79.1069 13.2936C74.9383 5.39381 66.6566 0 57.1419 0C47.6271 0 39.3534 5.39381 35.2086 13.2856C35.1689 13.3095 35.1291 13.3334 35.0973 13.3572C34.3494 13.8425 33.5698 14.3119 32.7504 14.6699C32.0742 14.9722 31.3184 15.0995 30.6024 15.3143C29.4171 15.6723 28.3272 16.1973 27.6112 17.2475C27.2054 17.8441 26.6645 18.0191 26.036 18.0191C24.3017 18.0191 22.8697 18.6715 21.7639 19.9841C21.2866 20.549 20.6979 20.8752 20.0376 21.1456C19.2579 21.4718 18.4226 21.3923 17.6191 21.4877C16.3383 21.6389 15.1847 22.0844 14.2698 23.0072C13.4186 23.8664 12.4242 24.5188 11.3581 25.0518C10.3001 25.5768 9.18629 25.9587 7.97706 25.7678C6.18708 25.4893 5.16082 24.1687 5.67793 22.331C5.94841 21.3604 6.52916 20.6047 7.26107 19.9523C7.92933 19.3557 8.62941 18.7829 9.31358 18.2101C9.83864 17.7725 10.2205 17.2554 10.2682 16.5553C10.3557 15.2347 9.49655 14.1926 8.17595 13.9698C7.71453 13.8903 7.24516 13.8505 6.79965 13.7232C5.73362 13.4288 4.70736 13.0231 3.85612 12.2673C3.76066 12.1798 3.66519 12.0923 3.51404 11.9491C3.47426 12.3708 3.42653 12.7128 3.41857 13.0629C3.38675 14.5983 4.1107 15.6961 5.46313 16.078C5.95637 16.2212 6.48143 16.2133 6.99058 16.3008C7.28493 16.3485 7.5952 16.4121 7.84977 16.5474C8.27141 16.7701 8.35097 17.2554 8.06457 17.6293C7.70657 18.0907 7.26902 18.4567 6.74396 18.7272C6.40983 18.9022 6.0757 19.109 5.80521 19.3636C4.71532 20.3978 4.21412 21.7264 4.14252 23.1902C4.05501 24.9563 4.90625 26.2292 6.52121 26.8895C7.18151 27.16 7.88159 27.2634 8.58963 27.2475C9.43291 27.2316 10.2841 27.1441 11.1752 27.0884C11.1752 27.1679 11.1672 27.2714 11.1752 27.3748C11.2468 28.1146 11.2706 28.8625 11.4218 29.5784C11.5411 30.1512 11.7957 30.7002 12.0503 31.2411C12.4083 32.0128 12.2889 32.514 11.565 32.9357C11.4536 32.9993 11.3422 33.055 11.2388 33.1345C10.5944 33.596 9.91024 33.8267 9.09082 33.6516C8.6135 33.5482 8.44643 33.7471 8.23163 34.1926C7.8975 34.9086 7.54746 35.6166 7.14173 36.2929C6.82352 36.8259 6.33823 37.2157 5.72566 37.4225C5.31198 37.5657 5.00967 37.8442 4.82669 38.2579C4.67554 38.584 4.41301 38.7909 4.04706 38.8625C3.9675 38.8784 3.87999 38.9102 3.80839 38.9659C3.3788 39.2841 2.99693 40.4615 3.13218 40.9389C3.61746 41.0184 4.07888 41.09 4.53234 41.1696C5.18469 41.273 5.62224 41.0423 6.0041 40.5013C6.30641 40.0638 6.67236 39.666 7.03831 39.2762C7.25311 39.0534 7.53951 39.0216 7.85773 39.0932C8.82034 39.3159 9.65566 39.1171 10.3876 38.409C11.39 37.4464 12.5833 36.985 14.0073 37.2396C14.4846 37.3271 14.9779 37.3748 15.4632 37.3987C16.0041 37.4225 16.5212 37.3589 17.0145 37.0884C17.627 36.7463 18.2794 36.4838 18.9158 36.1894C19.2738 36.0224 19.5204 35.7758 19.6 35.37C19.6318 35.2268 19.6875 35.0916 19.7432 34.9563C19.9023 34.6143 20.0694 34.2801 20.2603 33.8903C20.0057 33.8903 19.783 33.9062 19.5682 33.8824C19.3216 33.8585 19.1784 33.954 19.0431 34.1528C17.7782 35.9349 16.036 36.5554 13.9118 36.1815C12.806 35.9826 11.7559 36.1258 10.7376 36.5793C9.93411 36.9373 9.24198 37.4623 8.65327 38.1147C8.39074 38.409 8.19981 38.4567 7.91341 38.3215C7.94524 38.2658 7.97706 38.2022 8.01684 38.1465C9.11469 36.6827 10.5546 35.7917 12.3764 35.553C12.9811 35.4734 13.6095 35.553 14.2141 35.4894C16.5292 35.2507 18.2396 34.1051 19.3136 32.0367C19.3693 31.9253 19.3852 31.7742 19.3932 31.6469C19.4568 30.7559 19.4727 29.8569 19.5761 28.9659C19.6159 28.6238 19.8068 28.2897 19.966 27.9714C20.0694 27.7726 20.2524 27.8203 20.3239 28.0351C20.3558 28.1226 20.3637 28.226 20.3558 28.3215C20.316 28.6795 20.2524 29.0375 20.2285 29.3955C20.1887 30.1671 20.141 30.9388 20.3637 31.6946C20.499 32.156 20.7854 32.4583 21.2309 32.6174C21.74 32.8004 22.2651 32.8163 22.7901 32.7129C23.8244 32.5061 24.8586 32.4026 25.9087 32.5617C26.6963 32.6731 27.4918 32.8163 28.2874 32.88C28.8602 32.9277 29.4489 32.8879 30.0376 32.8879C29.9182 32.514 29.783 32.2197 29.7194 31.9094C29.6557 31.5991 29.5841 31.273 29.7989 30.9786C29.9898 30.7161 30.1967 30.7399 30.324 31.0343C30.3797 31.1616 30.4194 31.2889 30.4751 31.4162C31.0002 32.5697 31.7082 33.5482 32.9175 34.0653C34.1028 34.5745 34.7154 35.4734 34.8347 36.7463C34.8586 37.0248 34.7711 37.1918 34.5245 37.2953C33.8005 37.5896 33.0845 37.8999 32.3606 38.1863C31.7401 38.4329 31.1832 38.4329 30.8093 37.5976C30.499 36.9054 30.0933 36.2451 29.4807 35.7598C29.2977 35.6087 29.0272 35.4814 28.7965 35.4814C28.1919 35.4894 27.5873 35.5689 26.9906 35.6326C26.5849 35.6723 26.4894 35.9269 26.7281 36.261C27.0463 36.7225 27.3645 37.1759 27.6509 37.6532C27.8419 37.9635 28.0169 38.0828 28.3669 37.9953C28.7408 37.8999 29.0352 38.0192 29.242 38.3056C29.4011 38.5363 29.5284 38.7909 29.6319 39.0534C29.9023 39.7296 30.6342 40.2786 31.3502 40.2467C31.6685 40.2308 32.0026 40.1274 32.3049 40.0081C33.5221 39.5069 34.7313 38.9818 35.9405 38.4647C36.0996 38.4011 36.2588 38.3454 36.4179 38.3136C40.8411 45.0757 48.4863 49.5546 57.1498 49.5546C65.8133 49.5546 73.4506 45.0837 77.8818 38.3215C78.2557 38.4567 78.6057 38.6397 78.9637 38.7909C80.0298 39.2284 81.1117 39.6262 82.1618 40.0956C83.2995 40.5968 84.3098 39.9285 84.6917 38.9977C84.7553 38.8466 84.819 38.6875 84.8985 38.5443C85.1769 38.051 85.4395 37.9396 86.0043 38.0192C86.243 38.051 86.4498 38.0033 86.593 37.7805C86.9272 37.2634 87.2613 36.7463 87.6034 36.2372C87.8182 35.919 87.7147 35.6803 87.317 35.6326C86.8078 35.5769 86.2987 35.5769 85.7975 35.4973C85.3281 35.4178 84.9781 35.5769 84.6598 35.8871C84.103 36.4361 83.7291 37.1123 83.3711 37.7964C83.1483 38.234 82.8301 38.4488 82.3687 38.2897C81.4379 37.9635 80.5389 37.5737 79.632 37.1998C79.5445 37.168 79.4729 37.0089 79.4649 36.8975C79.4172 35.7678 80.157 34.5665 81.2151 34.1369C82.1061 33.7789 82.7903 33.1902 83.2835 32.3867C83.554 31.9571 83.7529 31.4878 83.9677 31.0343C84.103 30.7479 84.3337 30.6922 84.4848 30.9707C84.5882 31.1695 84.6439 31.44 84.6121 31.6628C84.5485 32.0606 84.4053 32.4504 84.278 32.9118C84.7235 32.9118 85.169 32.9277 85.6145 32.9038C86.1396 32.88 86.6646 32.8243 87.1897 32.7686C88.0011 32.6811 88.8126 32.514 89.6241 32.5061C90.3798 32.5061 91.1356 32.6731 91.8914 32.7686C93.1483 32.9197 93.928 32.3549 94.0473 31.1218C94.1109 30.4456 94.0553 29.7614 94.0314 29.0772C94.0234 28.7749 93.9598 28.4726 93.9518 28.1783C93.9518 28.0749 94.0632 27.9714 94.1189 27.876C94.2064 27.9396 94.3337 27.9794 94.3814 28.0669C94.5008 28.2817 94.6042 28.5045 94.6678 28.7352C94.9065 29.6341 94.9144 30.549 94.9144 31.4718C94.9144 31.6707 94.9144 31.8935 95.002 32.0685C95.6782 33.4368 96.7203 34.4313 98.1205 35.0279C98.8922 35.3541 99.7036 35.5848 100.539 35.5371C102.926 35.3939 104.819 36.2929 106.275 38.1624C106.323 38.226 106.354 38.3056 106.394 38.3852C106.012 38.4568 105.909 38.417 105.615 38.1147C104.159 36.5872 102.424 35.8553 100.284 36.2213C99.4411 36.3645 98.5899 36.3724 97.7625 36.1019C96.6885 35.7519 95.885 35.0439 95.2247 34.1449C95.1611 34.0653 95.0815 33.938 95.0099 33.9301C94.6917 33.9062 94.3735 33.9221 94.0712 33.9221C94.2939 34.4472 94.5246 34.9325 94.6996 35.4337C94.8269 35.7917 95.0338 36.0383 95.3679 36.1974C96.0043 36.4917 96.6567 36.7622 97.2693 37.0964C97.8023 37.3828 98.3592 37.4544 98.9399 37.3987C99.4968 37.3509 100.046 37.2634 100.595 37.2077C101.915 37.0725 103.021 37.5498 103.944 38.4488C104.66 39.1489 105.487 39.3239 106.426 39.1091C106.784 39.0295 107.086 39.0773 107.317 39.3319C107.675 39.7296 108.025 40.1354 108.327 40.5729C108.614 40.9707 108.964 41.2093 109.449 41.1696ZM57.1419 47.8522C49.3216 47.8522 42.4004 43.946 38.2238 37.9794C38.2476 37.9476 38.2794 37.9158 38.3033 37.876C38.6454 37.3669 39.0034 36.8577 39.2978 36.3167C39.6001 35.7678 39.6239 35.1871 39.2818 34.6143C39.0432 34.2244 38.8125 33.8346 38.6136 33.4289C38.4306 33.0709 38.3033 32.689 38.1363 32.331C37.8499 31.7105 37.2373 31.4798 36.6008 31.798C36.9748 32.5299 37.3487 33.2539 37.7146 33.9858C37.9055 34.3597 38.1124 34.7256 38.2317 35.1234C38.3033 35.378 38.3033 35.7121 38.1999 35.9428C38.0328 36.3167 37.818 36.6747 37.5953 37.0168C37.4362 36.7702 37.285 36.5156 37.1418 36.261C37.1498 36.2292 37.1577 36.1974 37.1657 36.1656C37.2532 35.7519 37.293 35.3223 37.0464 34.9166C36.6008 34.1767 36.1713 33.4209 35.7337 32.6731C35.6064 32.4583 35.4871 32.2276 35.328 32.0287C35.0416 31.6469 35.1211 31.3764 35.5825 31.2491C35.9405 31.1536 36.2985 31.0502 36.6565 30.9627C37.3327 30.8036 37.7783 30.3819 38.0249 29.7535C38.2238 29.2602 38.4067 28.7511 38.5499 28.234C38.6931 27.7089 38.7886 27.1679 38.9159 26.5951C39.258 27.3748 39.3137 28.1465 39.1943 28.942C39.075 29.7535 38.709 30.4615 38.1681 31.1457C38.5897 31.2014 38.9557 31.3048 39.3216 31.2889C39.6955 31.2809 40.0615 31.1536 40.4274 31.09C41.1355 30.9627 41.8515 30.8434 42.5595 30.732C42.6311 30.7161 42.7186 30.7479 42.8459 30.7718C42.7584 30.915 42.6868 31.0104 42.639 31.1139C42.472 31.4639 42.2572 31.806 42.1617 32.1719C42.0583 32.5697 41.8753 32.872 41.5491 33.1266C41.0798 33.4846 40.6661 33.8983 40.5627 34.5267C40.4911 34.9404 40.5627 35.0041 40.9684 34.8768C41.032 34.8529 41.1036 34.8211 41.1673 34.8291C41.3343 34.8529 41.5014 34.8927 41.6605 34.9245C41.5889 35.0598 41.5332 35.2189 41.4298 35.3303C40.69 36.1656 40.7377 36.5952 41.0639 37.5021C41.1673 37.7885 41.406 37.9715 41.7162 37.9635C42.0106 37.9556 42.3129 37.9158 42.6072 37.8362C43.188 37.6851 43.7687 37.51 44.3495 37.3191C45.0893 37.0725 45.8371 36.9134 46.6247 37.0089C47.5555 37.1282 48.359 36.8736 49.0432 36.2372C49.1864 36.1019 49.3853 36.0144 49.5683 35.9349C49.7592 35.8474 49.9263 35.919 50.0535 36.086C50.5707 36.7781 51.2389 37.2714 52.0265 37.6055C52.8061 37.9396 53.6176 38.0351 54.3893 37.876C53.7369 37.4225 53.0368 36.977 52.3845 36.4758C52.1299 36.2849 51.8754 35.9826 51.8038 35.6882C51.581 34.7654 51.1355 33.9699 50.5707 33.2141C50.4434 33.047 50.2445 32.8243 50.4672 32.6174C50.6979 32.4026 50.9127 32.6095 51.0798 32.7606C51.6685 33.3096 52.1936 33.9142 52.5675 34.6381C52.9493 35.378 53.546 35.8792 54.2859 36.1974C54.803 36.4202 55.3439 36.4599 55.8929 36.269C55.4553 35.9985 55.0178 35.7519 54.62 35.4655C54.1586 35.1314 53.7847 34.7256 53.5619 34.1688C53.2357 33.3732 52.7107 32.697 52.0424 32.156C51.8197 31.981 51.7401 31.7821 51.7162 31.5116C51.6446 30.7399 51.4696 29.9921 51.04 29.3239C50.9923 29.2443 50.9684 29.1409 50.9446 29.0534C50.7934 28.4169 50.6263 27.7885 50.4911 27.1441C50.3638 26.4997 50.2365 25.8473 50.1649 25.187C50.0774 24.3994 49.966 23.6278 49.5524 22.9436C49.0989 22.2037 48.6454 21.4559 48.1045 20.7797C47.3407 19.8409 46.5054 18.9658 45.6939 18.0669C45.4155 17.7566 45.1291 17.4384 44.8109 17.1679C43.8881 16.4042 42.9334 15.6643 42.0026 14.9086C41.5969 14.5744 41.2389 14.1767 40.8093 13.8743C40.1251 13.397 39.3614 13.0629 38.542 12.872C38.176 12.7844 37.818 12.7288 37.468 12.7128C41.5094 6.10185 48.8204 1.67065 57.1419 1.67065C65.4792 1.67065 72.7982 6.1098 76.8555 12.7526C76.6248 12.7526 76.3941 12.7685 76.1714 12.8004C75.1212 12.9515 74.1586 13.3731 73.3153 14.0096C72.5914 14.5506 71.947 15.2109 71.2071 15.7359C69.3058 17.0804 67.9056 18.9181 66.3463 20.6047C65.8611 21.1297 65.5269 21.79 65.1053 22.3787C64.6916 22.9515 64.3893 23.5721 64.27 24.2642C64.1904 24.7654 64.1984 25.2745 64.1029 25.7757C63.9518 26.5474 63.7529 27.3191 63.5699 28.0828C63.4665 28.5045 63.4267 28.9738 63.2278 29.3477C62.838 30.0796 62.6471 30.8513 62.5516 31.6628C62.5357 31.806 62.4482 31.981 62.3368 32.0685C61.6288 32.6652 61.056 33.3652 60.7059 34.2244C60.515 34.6859 60.2286 35.0518 59.8388 35.3462C59.4728 35.6166 59.0751 35.8474 58.6852 36.094C58.5898 36.1497 58.4943 36.1974 58.3352 36.2849C58.5023 36.3247 58.6057 36.3565 58.7091 36.3724C59.8149 36.5077 61.1355 35.8314 61.6288 34.845C62.0186 34.0733 62.5516 33.4209 63.1642 32.8243C63.2676 32.7209 63.3949 32.6333 63.5222 32.5856C63.6017 32.5538 63.7529 32.5777 63.8086 32.6413C63.8722 32.697 63.904 32.8481 63.8722 32.9277C63.8165 33.0789 63.721 33.2221 63.6256 33.3573C63.1562 33.9858 62.7425 34.654 62.5675 35.4337C62.48 35.8155 62.297 36.1178 62.0345 36.3883C61.4776 36.9691 60.7934 37.3668 60.0854 37.7248C59.9979 37.7646 59.9104 37.8124 59.7592 37.8999C60.0218 37.9317 60.1968 37.9635 60.3718 37.9715C61.9788 38.0272 63.2437 37.3589 64.2302 36.1258C64.3654 35.9587 64.5245 35.8871 64.7155 35.9667C64.8825 36.0383 65.0655 36.1099 65.1928 36.2372C65.9088 36.9134 66.7441 37.16 67.7226 37.0486C68.1045 37.0089 68.5102 37.0168 68.8841 37.0884C70.0616 37.2953 71.1515 37.8601 72.3527 37.9794C72.655 38.0112 72.9573 37.9794 73.1005 37.7169C73.3949 37.1759 73.6017 36.5952 73.2756 35.9906C73.1244 35.7121 72.8937 35.4734 72.7107 35.2109C72.663 35.1473 72.5993 35.0279 72.6232 34.9882C72.663 34.9166 72.7744 34.8529 72.8539 34.8609C73.0449 34.8688 73.2358 34.9086 73.4267 34.9643C73.6415 35.02 73.7847 34.9643 73.7211 34.7415C73.6415 34.4392 73.562 34.1051 73.3869 33.8585C73.1721 33.5562 72.838 33.3334 72.5834 33.055C72.4164 32.872 72.2732 32.6572 72.1698 32.4424C71.9629 32.0049 71.7799 31.5594 71.589 31.1139C71.5492 31.0263 71.5015 30.9388 71.4299 30.7956C71.5731 30.7956 71.6447 30.7877 71.7163 30.7956C72.0425 30.8513 72.3686 30.915 72.6948 30.9707C73.1483 31.0502 73.6176 31.0741 74.0393 31.2252C74.7314 31.4718 75.3679 31.3286 76.0679 31.1775C75.5508 30.5092 75.1928 29.8092 75.0655 29.0136C74.9383 28.2181 75.0099 27.4464 75.3519 26.7065C75.3997 26.8259 75.4156 26.9452 75.4395 27.0645C75.5827 28.0669 75.869 29.0295 76.2907 29.9444C76.5453 30.5092 76.9828 30.8752 77.5954 31.0184C77.9693 31.1059 78.3352 31.2093 78.7012 31.3048C79.1149 31.4162 79.1944 31.7105 78.9478 32.0606C78.7728 32.3072 78.6376 32.5777 78.4864 32.8402C78.0966 33.5164 77.6909 34.1847 77.3169 34.8688C77.1897 35.1075 77.0624 35.378 77.0465 35.6405C77.0226 35.8792 77.0544 36.1099 77.1101 36.3326C76.9669 36.5872 76.8157 36.8338 76.6566 37.0805L76.6487 37.0725C76.4737 36.7543 76.2827 36.452 76.1077 36.1338C75.9566 35.8633 75.877 35.561 75.9963 35.2587C76.1395 34.8768 76.3066 34.5029 76.4896 34.1369C76.8317 33.4368 77.1817 32.7368 77.5317 32.0446C77.5715 31.973 77.5795 31.8855 77.6033 31.806C76.8635 31.5753 76.3862 31.7821 76.0998 32.4504C75.9406 32.8084 75.8054 33.1743 75.6383 33.5244C75.4872 33.8505 75.3519 34.1926 75.1371 34.4711C74.6598 35.0995 74.5962 35.8076 75.0258 36.4758C75.2883 36.8895 75.5747 37.2873 75.8134 37.7089C75.885 37.8283 75.9566 37.9317 76.0361 38.0192C71.8913 43.946 64.9621 47.8522 57.1419 47.8522ZM38.1601 18.7351C38.3431 18.401 38.5897 18.3771 38.8204 18.6794C39.1546 19.109 39.3455 19.6102 39.4409 20.1433C39.5921 21.0024 39.4887 21.8537 39.2739 22.689C39.2659 22.7288 39.2341 22.7686 39.2182 22.8004C39.075 22.156 38.9636 21.5116 38.7727 20.8911C38.6374 20.4535 38.4147 20.0319 38.1681 19.6341C37.9771 19.3238 37.9851 19.0374 38.1601 18.7351ZM46.6247 33.9062C46.927 33.8426 47.11 34.0096 47.1418 34.312C47.1975 34.9404 46.9032 35.3064 46.2667 35.4018C46.1156 35.4257 45.9565 35.4337 45.8053 35.4575C45.2962 35.4575 45.2087 35.3303 45.4076 34.8609C45.6303 34.3199 46.0679 34.0256 46.6247 33.9062ZM45.5667 28.8147C45.6224 28.6556 45.6462 28.5363 45.6939 28.4329C45.9963 27.7964 46.2747 27.16 46.6088 26.5395C46.7122 26.3485 46.9589 26.1576 47.1578 26.1258C47.3169 26.1019 47.5396 26.3087 47.6749 26.4679C48.0965 26.977 48.4863 27.518 48.9 28.0351C49.3216 28.5601 49.4012 29.7773 49.0352 30.3342C48.9318 30.4854 48.7727 30.5967 48.6375 30.732C48.6057 30.7161 48.5818 30.7081 48.55 30.6922C48.542 30.5888 48.5341 30.4933 48.5261 30.3899C48.5022 30.0717 48.5261 29.7376 48.4465 29.4352C48.3749 29.1648 48.2079 28.9102 48.0329 28.6954C47.7624 28.3613 47.4362 28.0749 47.1657 27.7487C46.9986 27.5498 46.8873 27.5737 46.76 27.7566C46.6168 27.9635 46.4895 28.1862 46.3383 28.3931C46.1713 28.6158 45.9485 28.7909 45.5667 28.8147ZM76.1634 19.5705C75.9963 19.8569 75.7895 20.1273 75.6861 20.4376C75.4395 21.2093 75.2485 22.0048 75.0337 22.7924C74.9701 22.4981 74.8905 22.1719 74.8428 21.8457C74.7075 20.8274 74.7553 19.8409 75.3042 18.934C75.5667 18.5044 75.7259 18.401 75.9327 18.5283C76.243 18.7033 76.3623 19.2363 76.1634 19.5705ZM65.7497 30.7002C65.4712 30.6683 65.336 30.4933 65.2246 30.3024C64.8587 29.666 64.9701 28.5522 65.4315 27.9874C65.8372 27.4862 66.235 26.977 66.6089 26.4599C66.943 25.9985 67.4044 25.9985 67.667 26.5076C68.0011 27.1679 68.3114 27.8362 68.6296 28.5124C68.6693 28.592 68.6773 28.6954 68.7171 28.8386C68.2716 28.7829 68.0409 28.5442 67.842 28.2578C67.7226 28.0828 67.6192 27.8919 67.4919 27.7169C67.3885 27.5737 67.293 27.5737 67.1658 27.7169C66.8316 28.0828 66.4816 28.4408 66.1395 28.7988C65.8292 29.125 65.7895 29.5546 65.7576 29.9683C65.7258 30.191 65.7497 30.4376 65.7497 30.7002ZM67.1499 34.304C67.1976 33.9937 67.4044 33.8346 67.7147 33.9142C68.2398 34.0494 68.6614 34.3279 68.8921 34.837C69.0989 35.3064 69.0035 35.4575 68.4864 35.4575C68.3114 35.4337 68.1363 35.4178 67.9613 35.3939C67.3965 35.3143 67.0623 34.8529 67.1499 34.304Z"/>
  <path fill="#212121" d="M1.10372 40.9386C1.41398 41.0102 1.7322 41.0023 2.00269 41.0261C2.20953 40.3261 2.38455 39.7135 2.57548 39.1009C2.70277 38.6872 2.41637 38.194 1.947 38.0588C1.58105 37.9553 1.27874 38.1701 1.20714 38.6793C1.13554 39.2441 1.04008 39.7851 0.7855 40.3102C0.626391 40.6204 0.753679 40.8591 1.10372 40.9386Z"/>
  <path fill="#212121" d="M111.661 38.9262C111.859 39.6104 112.074 40.2866 112.297 41.0185C112.56 40.9946 112.878 41.0026 113.172 40.9389C113.538 40.8594 113.665 40.6128 113.498 40.2786C113.268 39.8013 113.124 39.316 113.101 38.791C113.093 38.6637 113.053 38.5443 113.005 38.425C112.87 38.0829 112.631 37.9636 112.313 38.067C111.939 38.2023 111.581 38.6557 111.661 38.9262Z"/>
  <path fill="#212121" d="M109.704 35.8394C109.529 35.9348 109.314 35.9746 109.243 36.1019C109.179 36.2133 109.235 36.4519 109.33 36.5713C109.624 36.969 109.943 37.3589 110.293 37.7009C110.667 38.0669 111.231 37.9873 111.581 37.5816C111.804 37.3191 111.764 37.1202 111.47 36.9372C111.072 36.6826 110.69 36.3962 110.293 36.1337C110.126 36.0223 109.927 35.9507 109.704 35.8394Z"/>
  <path fill="#212121" d="M3.99131 37.7011C4.3334 37.367 4.62775 36.9931 4.93801 36.6272C5.01757 36.5237 5.0653 36.3885 5.08917 36.3328C5.10508 36.0464 4.97779 35.9509 4.79482 35.9271C4.52433 35.8793 4.27771 35.9271 4.047 36.0862C3.62536 36.3885 3.20372 36.6749 2.77413 36.9692C2.55137 37.1204 2.50364 37.3034 2.64684 37.5182C2.94915 37.9796 3.60149 38.091 3.99131 37.7011Z"/>
  <path fill="#212121" d="M105.129 52.7686H100.133V78.9977H105.129V52.7686Z"/>
  <path fill="#212121" d="M92.4564 72.4983C92.4564 73.9939 91.1835 75.2111 89.6083 75.2111C88.0252 75.2111 86.7523 73.9939 86.7523 72.4983V63.4768H81.7881V73.453C81.7881 76.8261 85.2805 79.5548 89.5924 79.5548C93.8884 79.5548 97.3888 76.8261 97.3888 73.453V63.4768H92.4564V72.4983Z"/>
  <path fill="#212121" d="M113.57 52.7686H108.574V78.9977H113.57V52.7686Z"/>
  <path fill="#212121" d="M17.3726 61.3605C17.3726 57.2793 14.0075 53.9778 9.84675 53.9778H0.713867V78.9977H6.02812V58.2737H8.74094C8.7648 58.2737 8.78867 58.2737 8.81254 58.2737C10.6503 58.2419 12.1697 59.7057 12.2016 61.5514C12.2016 63.3573 10.6105 64.8211 8.64547 64.8211H7.40442V70.8036L12.7187 78.9977H18.9796L11.6367 68.5363C14.978 67.7646 17.3488 64.7972 17.3726 61.3605Z"/>
  <path fill="#212121" d="M75.6782 65.3783C77.0624 64.1373 77.858 62.3711 77.8818 60.5175C77.8818 58.8151 77.2215 57.2558 76.0759 56.0227C74.8826 54.718 72.7824 53.9861 69.9343 53.9861H61.3901V78.9981H72.4244C76.6487 78.9344 80.0537 75.7363 80.0537 71.8222C80.0537 68.9742 79.0513 66.9376 75.6782 65.3783ZM74.6121 71.4324C74.5485 73.2622 73.4188 74.5351 71.5015 74.6544H66.7203V58.2741H70.0537C71.5175 58.2741 72.7028 59.6026 72.7028 61.0824C72.7028 62.5462 71.5175 63.7315 70.0537 63.7315H68.3194V68.2264H71.5015C73.2279 68.2343 74.6201 69.6345 74.6201 71.3529C74.6201 71.3767 74.6201 71.4006 74.6121 71.4324Z"/>
  <path fill="#212121" d="M49.5765 52.7686V65.1711C48.2479 63.8346 46.4421 63.0709 44.5566 63.0629C40.4357 63.0629 37.0864 66.7225 37.0864 71.2412C37.0864 75.7599 40.4357 79.4194 44.5566 79.4194C46.5057 79.4194 48.2718 78.5841 49.6004 77.2555V78.9978H54.5646L54.5566 52.7686H49.5765ZM45.9727 75.1632C43.952 75.1632 42.3132 73.3653 42.3132 71.1457C42.3132 68.9341 43.952 67.1361 45.9727 67.1361C48.0013 67.1361 49.6322 68.9341 49.6322 71.1457C49.6402 73.3653 48.0093 75.1632 45.9727 75.1632Z"/>
  <path fill="#212121" d="M26.6646 62.8323C22.0822 62.8641 18.3829 66.6032 18.4148 71.1935C18.3909 75.7758 22.0822 79.5149 26.6646 79.5547C30.1411 79.5547 32.8619 77.9795 34.2541 75.5133L30.1968 73.6438C29.6081 74.8291 28.3909 75.569 27.0623 75.5451C25.1212 75.5451 23.6813 74.1131 23.6654 72.4345V72.2675H34.6837C34.7155 71.9254 34.7314 71.5753 34.7235 71.2173C34.811 65.7997 31.231 62.8323 26.6646 62.8323ZM29.7672 69.3796H23.6654C23.5779 67.6931 24.8746 66.2531 26.5612 66.1656C28.2477 66.0781 29.6877 67.3748 29.7752 69.0614C29.7672 69.1648 29.7672 69.2762 29.7672 69.3796Z"/>
</svg>
