<svg xmlns="http://www.w3.org/2000/svg" fill="none" viewBox="0 0 48 48">
  <g fill="currentColor" clip-path="url(#start-up__clip0)">
    <path d="M39.2729 21.7633C38.6183 21.7633 37.9637 21.8725 37.3093 21.9815L33.1638 10.8542H33.8184C34.4729 10.8542 34.9093 11.2906 34.9093 11.9451C34.9093 12.5996 35.3457 13.036 36.0001 13.036C36.6546 13.036 37.091 12.5996 37.091 11.9451C37.091 10.0905 35.6729 8.67236 33.8183 8.67236H31.6364C31.3092 8.67236 30.9819 8.89052 30.7637 9.10877C30.5456 9.43605 30.4364 9.76333 30.6546 10.0906L33.3819 17.3997H16.4729L14.7274 14.9997C14.5093 14.7816 14.6183 14.4543 14.7274 14.4543C14.7274 14.3452 14.9456 14.127 15.2729 14.127C15.9274 14.127 16.3637 13.6906 16.3637 13.0361C16.3637 12.3817 15.9273 11.9453 15.2729 11.9453H10.9093C10.2547 11.9453 9.81838 12.3817 9.81838 13.0361C9.81838 13.6906 10.2548 14.127 10.9093 14.127H12.5457C12.4365 14.8907 12.5457 15.6543 12.9821 16.3089L14.1821 18.0543L11.0185 23.0725C11.0185 23.0725 11.0185 23.0725 10.9094 23.1816L6.65479 29.9452C6.32751 30.4906 6.43663 31.1452 6.98207 31.4725C7.20023 31.4725 7.41848 31.5816 7.63663 31.5816C7.96392 31.5816 8.40023 31.3634 8.50935 31.0361L12.3275 25.0361C13.8548 26.018 14.8366 27.6543 15.1639 29.3997H12.0001C11.3456 29.3997 10.9093 29.8361 10.9093 30.4906C10.9093 31.1451 11.3457 31.5815 12.0001 31.5815H22.0365C22.3638 32.4542 23.1274 33.2179 24.0001 33.5451V34.8542C24.0001 35.5088 24.4365 35.9451 25.091 35.9451C25.7455 35.9451 26.1819 35.5087 26.1819 34.8542V33.5451C27.491 33.1087 28.3637 31.9087 28.3637 30.4905C28.3637 29.0724 27.491 27.8724 26.1819 27.436V26.1268C26.1819 25.4723 25.7455 25.036 25.091 25.036C24.4365 25.036 24.0001 25.4725 24.0001 26.127V27.4361C23.1274 27.7634 22.3637 28.527 22.0365 29.3997H17.3457C17.0184 26.8906 15.6002 24.5997 13.5275 23.1816L15.6002 19.9089L19.7457 25.6907C19.9638 26.018 20.2911 26.1271 20.6184 26.1271C20.8365 26.1271 21.0548 26.018 21.2729 25.909C21.7094 25.5817 21.8184 24.8181 21.4911 24.3817L18.1093 19.5817H32.6184L28.582 24.3817C28.1456 24.8181 28.2547 25.5817 28.6911 25.909C28.9093 26.1271 29.1275 26.1271 29.3457 26.1271C29.6729 26.1271 30.0002 26.018 30.2184 25.6907L34.4729 20.6725L38.1821 30.818C38.2912 31.2544 38.7275 31.5816 39.1639 31.5816C39.273 31.5816 39.3821 31.5816 39.4912 31.4725C40.0366 31.2543 40.3639 30.5997 40.1458 30.0543L37.9639 24.0543C38.5093 23.9452 38.8366 23.9452 39.273 23.9452C42.873 23.9452 45.8185 26.8906 45.8185 30.4906C45.8185 34.0906 42.873 37.036 39.273 37.036C35.673 37.036 32.7276 34.0906 32.7276 30.4906C32.7276 28.9633 33.273 27.4361 34.364 26.2361C34.8004 25.7996 34.6913 25.1452 34.2549 24.7088C33.8185 24.2724 33.164 24.3815 32.7276 24.8179C31.3094 26.4543 30.5458 28.4179 30.5458 30.5997C30.5458 35.3997 34.473 39.327 39.273 39.327C44.073 39.327 48.0001 35.3997 48.0001 30.5997C48.0001 25.7997 44.0729 21.7633 39.2729 21.7633ZM25.091 29.3997C25.7456 29.3997 26.1819 29.8361 26.1819 30.4906C26.1819 31.1451 25.7455 31.5815 25.091 31.5815C24.4365 31.5815 24.0001 31.1452 24.0001 30.4906C24.0001 29.8361 24.4365 29.3997 25.091 29.3997Z"/>
    <path d="M15.8182 33.5449C15.2727 33.2176 14.6182 33.4358 14.2909 33.8722C13.0909 35.8358 11.0182 37.0358 8.72728 37.0358C5.12728 37.0358 2.18184 34.0904 2.18184 30.4903C2.18184 27.1085 4.69097 24.2722 8.07272 23.9449C8.61816 23.8358 9.16359 23.3995 9.05456 22.7449C8.94544 22.1995 8.50912 21.654 7.85456 21.7631C3.38184 22.3086 0 26.0176 0 30.4903C0 35.2904 3.92728 39.2176 8.72728 39.2176C11.7818 39.2176 14.6182 37.6904 16.2546 34.9631C16.4727 34.4176 16.3636 33.7631 15.8182 33.5449Z"/>
  </g>
  <defs>
    <clipPath id="start-up__clip0">
      <path fill="white" d="M0 0H48V48H0z"/>
    </clipPath>
  </defs>
</svg>
