<svg xmlns="http://www.w3.org/2000/svg" fill="none" viewBox="0 0 48 48">
  <path fill="currentColor" d="M10.9092 33.8219C11.5117 33.8219 12.0001 33.3335 12.0001 32.731C12.0001 32.1285 11.5117 31.6401 10.9092 31.6401C10.3068 31.6401 9.81836 32.1285 9.81836 32.731C9.81836 33.3335 10.3068 33.8219 10.9092 33.8219Z"/>
  <path fill="currentColor" d="M37.0909 33.8219C37.6933 33.8219 38.1818 33.3335 38.1818 32.731C38.1818 32.1285 37.6933 31.6401 37.0909 31.6401C36.4884 31.6401 36 32.1285 36 32.731C36 33.3335 36.4884 33.8219 37.0909 33.8219Z"/>
  <path fill="currentColor" d="M24.0001 25.0958C24.6026 25.0958 25.091 24.6074 25.091 24.005C25.091 23.4025 24.6026 22.9141 24.0001 22.9141C23.3976 22.9141 22.9092 23.4025 22.9092 24.005C22.9092 24.6074 23.3976 25.0958 24.0001 25.0958Z"/>
  <path fill="currentColor" d="M43.6364 20.0744L38.1818 18.9835C37.091 18.7654 36.1091 18.2199 35.3454 17.4562L29.5636 11.6744C28.3636 10.4744 26.7272 9.81982 24.9817 9.81982H14.7273C12.6546 9.81982 10.6909 10.8017 9.49088 12.438L7.09088 15.7107C6.76359 16.1471 6.87272 16.9107 7.30903 17.238C7.74534 17.5653 8.39991 17.4561 8.72719 17.0198L11.1272 13.7471C12 12.6562 13.2 12.0017 14.6182 12.0017H24.8727C26.0727 12.0017 27.1636 12.4381 27.9273 13.3108L33.7091 19.0926C34.8 20.1835 36.1091 20.8381 37.6364 21.1654L43.091 22.2562C44.6182 22.5835 45.7091 23.8926 45.7091 25.4198V30.5471C45.7091 31.2017 45.2727 31.638 44.6183 31.638H42.3274C41.7819 29.1289 39.6001 27.2744 36.9819 27.2744C34.3638 27.2744 32.1819 29.129 31.6365 31.638H20.7273V20.7289H30.5454C31.2 20.7289 31.6363 20.2925 31.6363 19.6381C31.6363 18.9835 31.1999 18.5472 30.5454 18.5472H20.7273V14.1836C20.7273 13.529 20.2909 13.0927 19.6364 13.0927C18.9818 13.0927 18.5455 13.5291 18.5455 14.1836V18.5472H3.27272C1.41816 18.5471 0 19.9653 0 21.8198V28.3653C0 31.4198 2.4 33.8198 5.45456 33.8198H5.56369C6.10913 36.3289 8.29097 38.1834 10.9091 38.1834C13.9637 38.1834 16.3637 35.7834 16.3637 32.7289C16.3637 29.6743 13.9637 27.2743 10.9091 27.2743C8.29097 27.2743 6.10913 29.1289 5.56369 31.6379H5.45456C3.6 31.6379 2.18184 30.2197 2.18184 28.3652V21.8197C2.18184 21.1652 2.61825 20.7289 3.27272 20.7289H18.5454V32.7289C18.5454 33.3834 18.9818 33.8197 19.6363 33.8197H31.7454C32.2909 36.3289 34.4727 38.1833 37.0909 38.1833C39.709 38.1833 41.8909 36.3288 42.4363 33.8197H44.7272C46.5817 33.8197 47.9999 32.4016 47.9999 30.547V25.4197C48 22.8017 46.1454 20.5108 43.6364 20.0744ZM10.9091 29.4562C12.7637 29.4562 14.1818 30.8744 14.1818 32.729C14.1818 34.5835 12.7637 36.0017 10.9091 36.0017C9.05456 36.0017 7.63641 34.5835 7.63641 32.729C7.63641 30.8744 9.05456 29.4562 10.9091 29.4562ZM37.0909 36.0017C35.2363 36.0017 33.8182 34.5835 33.8182 32.729C33.8182 30.8744 35.2363 29.4562 37.0909 29.4562C38.9454 29.4562 40.3636 30.8744 40.3636 32.729C40.3636 34.5835 38.9454 36.0017 37.0909 36.0017Z"/>
</svg>
