<svg xmlns="http://www.w3.org/2000/svg" fill="none" viewBox="0 0 198 37">
  <path fill="#212121" d="M155.961 15.5227C155.23 16.0344 154.649 16.7471 154.221 17.6645L154.195 14.7844H151.648V28.4466H154.342V22.1528C154.342 21.5826 154.418 20.921 154.572 20.1681C154.722 19.4152 155.095 18.7573 155.679 18.1908C156.264 17.6243 157.054 17.3392 158.044 17.3392C158.373 17.3392 158.618 17.3575 158.782 17.3904V14.7551H158.435C157.518 14.7588 156.695 15.0146 155.961 15.5227Z"/>
  <path fill="#212121" d="M168.267 22.9971C168.267 23.4649 168.165 23.9802 167.964 24.5431C167.763 25.106 167.408 25.603 166.896 26.0343C166.385 26.4693 165.807 26.6849 165.16 26.6849C164.374 26.6849 163.79 26.4839 163.406 26.0818C163.022 25.6798 162.828 25.0511 162.828 24.1922V14.7588H160.197V24.9232C160.197 25.7383 160.314 26.4144 160.551 26.959C160.785 27.5036 161.096 27.9386 161.476 28.2639C161.856 28.5928 162.284 28.8231 162.759 28.962C163.234 29.1008 163.713 29.1666 164.192 29.1666C165.16 29.1666 165.983 28.9656 166.659 28.5636C167.335 28.1615 167.909 27.6279 168.38 26.9663L168.406 28.7317H170.895V14.7588H168.263V22.9971H168.267Z"/>
  <path fill="#212121" d="M96.1837 22.6168C95.9826 22.2915 95.6903 21.9662 95.3102 21.6372C94.9301 21.3083 94.1881 20.9647 93.0843 20.6029C92.5287 20.4311 92.0353 20.2593 91.604 20.0875C91.1727 19.9158 90.8109 19.733 90.5112 19.5393C90.2115 19.3456 89.9849 19.1336 89.835 18.9033C89.6815 18.6731 89.6084 18.4099 89.6084 18.1102C89.6084 17.4962 89.7911 17.032 90.153 16.7177C90.3723 16.5093 90.6391 16.3668 90.9498 16.2864C91.2605 16.206 91.6296 16.1658 92.0499 16.1658C92.6749 16.1658 93.2012 16.3083 93.6289 16.5934C94.0601 16.8785 94.3964 17.3171 94.6413 17.9128L96.6771 16.8566C96.3153 15.9099 95.7378 15.2045 94.9447 14.7403C94.1515 14.2762 93.1793 14.0422 92.0243 14.0422C91.3737 14.0422 90.7488 14.1263 90.1494 14.2981C89.5463 14.4699 89.0419 14.7221 88.6326 15.0547C88.2232 15.3873 87.9125 15.7783 87.7042 16.2169C87.5178 16.5678 87.3898 16.9333 87.3204 17.3134C87.2473 17.6935 87.2144 18.0408 87.2144 18.3551C87.2144 18.7169 87.2656 19.097 87.3679 19.4991C87.4702 19.9011 87.642 20.2666 87.8869 20.6029C88.0806 20.866 88.3584 21.1365 88.7203 21.4216C89.0821 21.7067 89.539 21.9625 90.0836 22.1855L92.0316 22.9567C92.3789 23.0992 92.7297 23.2527 93.0879 23.4172C93.4461 23.578 93.7312 23.7973 93.9396 24.0751C94.1515 24.3492 94.2539 24.7184 94.2539 25.1789C94.2539 25.4932 94.1844 25.7637 94.0528 25.983C93.9176 26.2023 93.7385 26.3814 93.5083 26.5166C93.2816 26.6518 93.0148 26.7505 92.7115 26.809C92.4081 26.8675 92.0828 26.8967 91.7393 26.8967C91.3592 26.8967 91.0229 26.8456 90.7268 26.7469C90.4308 26.6482 90.1676 26.5093 89.93 26.3339C89.6925 26.1584 89.4878 25.9537 89.3124 25.7198C89.1369 25.4859 88.9798 25.2264 88.8445 24.9486L86.7466 25.9501C86.9147 26.4289 87.145 26.8602 87.441 27.2476C87.7371 27.635 88.088 27.9713 88.501 28.2491C88.9323 28.5305 89.4074 28.7534 89.9337 28.9179C90.46 29.086 91.1033 29.1665 91.8599 29.1665C92.3752 29.1665 92.8467 29.1189 93.2816 29.0239C93.7166 28.9289 94.1004 28.8046 94.433 28.6511C94.7656 28.4976 95.0506 28.3295 95.2919 28.1431C95.5331 27.9567 95.7195 27.7703 95.8548 27.5802C96.1143 27.2293 96.3262 26.8456 96.4871 26.4362C96.6479 26.0268 96.7283 25.5078 96.7283 24.8865C96.7283 24.3638 96.6734 23.9179 96.5638 23.5488C96.4541 23.1796 96.3262 22.869 96.1837 22.6168Z"/>
  <path fill="#212121" d="M197.814 18.4391C197.689 17.6131 197.474 16.8894 197.163 16.2681C196.403 14.7805 195.062 14.0386 193.143 14.0386C192.196 14.0386 191.399 14.2286 190.749 14.6087C190.098 14.9889 189.575 15.4932 189.177 16.1256L189.111 14.4589H186.589V32.7702H189.257V26.9844C189.458 27.2476 189.733 27.5181 190.072 27.7958C190.412 28.0773 190.833 28.2966 191.333 28.4574C191.834 28.6182 192.423 28.6986 193.106 28.6986C193.662 28.6986 194.228 28.6072 194.806 28.4245C195.38 28.2417 195.895 27.9201 196.344 27.4596C196.794 26.9991 197.149 26.4252 197.404 25.7344C197.605 25.2008 197.755 24.5722 197.854 23.8521C197.953 23.1321 198 22.2842 198 21.3156C198 20.2264 197.938 19.2652 197.814 18.4391ZM195.091 22.5912C195.054 23.1065 195.003 23.5305 194.948 23.8631C194.806 24.6233 194.524 25.2154 194.104 25.6431C193.684 26.0707 193.095 26.2863 192.335 26.2863C191.904 26.2863 191.513 26.2059 191.154 26.0451C190.796 25.8843 190.489 25.654 190.241 25.358C189.988 25.0619 189.791 24.7037 189.652 24.2907C189.513 23.8777 189.444 23.4172 189.444 22.9092V19.5831C189.444 19.0239 189.524 18.5342 189.689 18.1102C189.853 17.6862 190.069 17.3317 190.339 17.0503C190.61 16.7652 190.924 16.5532 191.282 16.4143C191.64 16.2754 192.01 16.206 192.386 16.206C192.788 16.206 193.168 16.2827 193.515 16.4362C193.866 16.5897 194.151 16.8237 194.374 17.1416C194.597 17.4596 194.769 17.8726 194.897 18.3807C194.988 18.7571 195.054 19.1848 195.091 19.6636C195.127 20.1424 195.149 20.654 195.149 21.195C195.149 21.608 195.131 22.0758 195.091 22.5912Z"/>
  <path fill="#212121" d="M183.618 16.2681C182.857 14.7805 181.516 14.0386 179.597 14.0386C178.65 14.0386 177.85 14.2286 177.199 14.6087C176.549 14.9889 176.026 15.4932 175.628 16.1256L175.562 14.4589H173.04V32.7702H175.708V26.9844C175.909 27.2476 176.183 27.5181 176.523 27.7958C176.863 28.0773 177.283 28.2966 177.784 28.4574C178.285 28.6182 178.873 28.6986 179.557 28.6986C180.112 28.6986 180.679 28.6072 181.256 28.4245C181.83 28.2417 182.346 27.9201 182.795 27.4596C183.248 26.9991 183.603 26.4252 183.855 25.7344C184.06 25.2008 184.21 24.5722 184.308 23.8521C184.407 23.1321 184.454 22.2842 184.454 21.3156C184.454 20.2228 184.392 19.2615 184.268 18.4355C184.14 17.6131 183.925 16.8894 183.618 16.2681ZM181.541 22.5912C181.505 23.1065 181.454 23.5305 181.399 23.8631C181.256 24.6233 180.975 25.2154 180.555 25.6431C180.134 26.0707 179.542 26.2863 178.786 26.2863C178.354 26.2863 177.963 26.2059 177.605 26.0451C177.247 25.8843 176.944 25.654 176.691 25.358C176.439 25.0619 176.242 24.7037 176.107 24.2907C175.968 23.8777 175.898 23.4172 175.898 22.9092V19.5831C175.898 19.0239 175.979 18.5342 176.143 18.1102C176.308 17.6862 176.523 17.3317 176.794 17.0503C177.064 16.7652 177.378 16.5532 177.733 16.4143C178.091 16.2754 178.46 16.206 178.837 16.206C179.239 16.206 179.619 16.2827 179.966 16.4362C180.317 16.5897 180.602 16.8237 180.825 17.1416C181.048 17.4596 181.223 17.8726 181.348 18.3807C181.439 18.7571 181.505 19.1848 181.545 19.6636C181.582 20.1424 181.604 20.654 181.604 21.195C181.596 21.608 181.578 22.0758 181.541 22.5912Z"/>
  <path fill="#212121" d="M149.214 14.6052H146.184L141.356 19.7185V9.71484H138.808V28.4465H141.356V22.8983L143.117 21.0452L146.615 28.4465H149.503L144.978 19.0752L149.214 14.6052Z"/>
  <path fill="#212121" d="M134.159 14.543C133.548 14.2067 132.836 14.0386 132.02 14.0386C131.037 14.0386 130.204 14.2359 129.52 14.6343C128.837 15.0327 128.256 15.5627 127.784 16.2279L127.759 14.4625H125.259V28.4464H127.905V20.2008C127.905 19.722 128.007 19.1957 128.216 18.6219C128.42 18.0481 128.779 17.5473 129.287 17.1197C129.795 16.6957 130.383 16.4837 131.048 16.4837C131.838 16.4837 132.412 16.6884 132.773 17.0941C133.132 17.4998 133.314 18.1285 133.314 18.9801V28.4464H135.961V18.2747C135.961 17.4523 135.814 16.7067 135.518 16.0451C135.219 15.3799 134.765 14.8792 134.159 14.543Z"/>
  <path fill="#212121" d="M79.9158 24.3677L76.5422 14.7588H73.9033L78.5744 27.9934L77.9713 29.3128C77.7922 29.7953 77.54 30.2229 77.2184 30.5921C76.8968 30.9612 76.4362 31.1476 75.8331 31.1476C75.6175 31.1476 75.4165 31.1293 75.2301 31.0964V33.4429C75.4603 33.4795 75.7674 33.4941 76.1438 33.4941C76.5897 33.4941 77.0575 33.4247 77.5473 33.2821C78.0371 33.1432 78.5122 32.8033 78.9764 32.266C79.4406 31.7288 79.8682 30.9356 80.263 29.8793L86.0305 14.7588H83.4574L79.9158 24.3677Z"/>
  <path fill="#212121" d="M70.6833 14.6856C70.0729 14.353 69.3602 14.1849 68.5451 14.1849C67.5985 14.1849 66.7944 14.3639 66.1292 14.7221C65.4676 15.0803 64.8975 15.5737 64.426 16.1951V9.71484H61.7798V28.4465H64.426V20.285C64.426 19.8135 64.5283 19.2908 64.7367 18.7207C64.9414 18.1505 65.2995 17.6571 65.8076 17.2367C66.3156 16.8164 66.9041 16.6044 67.5693 16.6044C68.3587 16.6044 68.9326 16.8055 69.2944 17.2075C69.6526 17.6096 69.8353 18.2309 69.8353 19.0752V28.4465H72.4815V18.3771C72.4815 17.562 72.3353 16.8274 72.0393 16.1695C71.7432 15.5116 71.2937 15.0182 70.6833 14.6856Z"/>
  <path fill="#212121" d="M57.7117 26.1037C57.4632 26.0013 57.2658 25.8442 57.1232 25.6358C56.9807 25.4275 56.882 25.168 56.8309 24.8537C56.7797 24.543 56.7541 24.1775 56.7541 23.7608V16.5862H59.499V14.5284H56.7541V9.71484H54.2249V14.5284H52.5034V16.5862H54.2249V23.7864C54.2249 24.4882 54.2834 25.1278 54.3967 25.7053C54.51 26.2828 54.7183 26.7725 55.018 27.1746C55.3177 27.5766 55.7271 27.8909 56.2497 28.1102C56.7724 28.3332 57.4413 28.4428 58.26 28.4428C58.7497 28.4428 59.2066 28.4173 59.6379 28.3661V26.206C59.3162 26.2426 58.9982 26.2572 58.6766 26.2572C58.2819 26.2608 57.9603 26.206 57.7117 26.1037Z"/>
  <path fill="#212121" d="M108.307 22.6168C108.106 22.2915 107.814 21.9662 107.434 21.6372C107.054 21.3083 106.312 20.9647 105.208 20.6029C104.652 20.4311 104.159 20.2593 103.728 20.0875C103.296 19.9158 102.934 19.733 102.635 19.5393C102.335 19.3456 102.108 19.1336 101.959 18.9033C101.809 18.6731 101.732 18.4099 101.732 18.1102C101.732 17.4962 101.915 17.032 102.277 16.7177C102.496 16.5093 102.763 16.3668 103.073 16.2864C103.384 16.206 103.753 16.1658 104.173 16.1658C104.798 16.1658 105.325 16.3083 105.752 16.5934C106.184 16.8785 106.52 17.3171 106.765 17.9128L108.801 16.8566C108.439 15.9099 107.861 15.2045 107.068 14.7403C106.275 14.2762 105.303 14.0422 104.148 14.0422C103.497 14.0422 102.872 14.1263 102.269 14.2981C101.666 14.4699 101.162 14.7221 100.752 15.0547C100.343 15.3873 100.032 15.7783 99.824 16.2169C99.6376 16.5678 99.5097 16.9333 99.4403 17.3134C99.3672 17.6935 99.3343 18.0408 99.3343 18.3551C99.3343 18.7169 99.3854 19.097 99.4841 19.4991C99.5865 19.9011 99.7583 20.2666 100.003 20.6029C100.197 20.866 100.475 21.1365 100.836 21.4216C101.198 21.7067 101.655 21.9625 102.2 22.1855L104.148 22.9567C104.491 23.0992 104.846 23.2527 105.204 23.4172C105.562 23.578 105.847 23.7973 106.056 24.0751C106.268 24.3492 106.37 24.7184 106.37 25.1789C106.37 25.4932 106.304 25.7637 106.169 25.983C106.034 26.2023 105.855 26.3814 105.624 26.5166C105.398 26.6518 105.131 26.7505 104.828 26.809C104.524 26.8675 104.199 26.8967 103.855 26.8967C103.475 26.8967 103.139 26.8456 102.843 26.7469C102.547 26.6482 102.284 26.5093 102.046 26.3339C101.809 26.1584 101.604 25.9537 101.429 25.7198C101.253 25.4859 101.096 25.2264 100.961 24.9486L98.8628 25.9501C99.0309 26.4289 99.2612 26.8602 99.5572 27.2476C99.8533 27.635 100.204 27.9713 100.621 28.2491C101.052 28.5305 101.527 28.7534 102.054 28.9179C102.58 29.086 103.223 29.1665 103.98 29.1665C104.495 29.1665 104.967 29.1189 105.402 29.0239C105.836 28.9289 106.22 28.8046 106.553 28.6511C106.885 28.4976 107.171 28.3295 107.412 28.1431C107.653 27.9567 107.839 27.7703 107.975 27.5802C108.234 27.2293 108.446 26.8456 108.607 26.4362C108.768 26.0268 108.848 25.5078 108.848 24.8865C108.848 24.3638 108.793 23.9179 108.684 23.5488C108.578 23.1796 108.45 22.869 108.307 22.6168Z"/>
  <path fill="#212121" d="M121.896 16.9808C121.681 16.3704 121.355 15.8332 120.931 15.3653C120.548 14.9596 120.065 14.638 119.484 14.3968C118.903 14.1592 118.186 14.0386 117.335 14.0386C116.414 14.0386 115.632 14.1628 114.992 14.4114C114.352 14.6599 113.815 15.0218 113.38 15.5006C113.055 15.8441 112.763 16.2864 112.503 16.8346C112.244 17.3792 112.043 18.0883 111.907 18.9581C111.772 19.828 111.703 20.8112 111.703 21.9004C111.703 22.741 111.746 23.4939 111.831 24.1665C111.915 24.839 112.064 25.4603 112.28 26.0268C112.638 27.01 113.223 27.7776 114.038 28.3331C114.853 28.8887 115.924 29.1664 117.258 29.1664C118.018 29.1664 118.727 29.0641 119.389 28.8558C120.051 28.6474 120.61 28.3295 121.067 27.9018C121.524 27.4742 121.915 26.9333 122.236 26.2863L120.2 25.1752C120.091 25.3726 119.926 25.6029 119.714 25.866C119.502 26.1292 119.195 26.3558 118.801 26.5495C118.402 26.7432 117.953 26.8419 117.452 26.8419C116.984 26.8419 116.553 26.7798 116.165 26.6518C115.778 26.5239 115.442 26.3083 115.16 26.0012C114.879 25.6942 114.659 25.2849 114.506 24.7695C114.352 24.2542 114.276 23.6146 114.276 22.847V22.4559H122.401V20.9684C122.401 20.3288 122.371 19.6562 122.309 18.9508C122.255 18.2454 122.116 17.5912 121.896 16.9808ZM113.844 20.5225C113.863 19.6818 113.947 18.9837 114.1 18.4245C114.254 17.8653 114.455 17.4231 114.711 17.0941C114.963 16.7652 115.266 16.5349 115.613 16.4033C115.961 16.2681 116.344 16.2023 116.765 16.2023C117.211 16.2023 117.653 16.2937 118.091 16.4801C118.53 16.6665 118.885 17.0905 119.151 17.7557C119.418 18.4209 119.55 19.3456 119.55 20.5261H113.844V20.5225Z"/>
  <path fill="#212121" d="M31.6446 11.6264C31.0196 5.10598 25.7455 0 19.353 0C12.8508 0 7.50728 5.28141 7.03213 11.959C2.87645 14.0423 0 18.4868 0 23.622C0 30.7492 5.54089 36.5459 12.3537 36.5459C15.1023 36.5459 17.6461 35.6029 19.7002 34.0057C21.7543 35.6029 24.2982 36.5459 27.0467 36.5459C33.8595 36.5459 39.4004 30.7492 39.4004 23.622C39.4041 18.1944 36.1877 13.538 31.6446 11.6264ZM17.9897 14.8464C16.2061 16.8603 15.0255 19.47 14.7551 22.3574C13.8194 21.8457 12.9714 21.1841 12.2368 20.402C13.103 17.8033 14.0423 15.3874 15.0145 13.3918C16.0891 13.7024 17.0906 14.1995 17.9897 14.8464ZM16.133 11.3157C17.3684 9.27263 18.6366 8.01898 19.8537 8.01898C21.0452 8.01898 22.2696 9.24339 23.4648 11.25C22.0942 11.6849 20.826 12.3611 19.7002 13.2346C18.633 12.4049 17.4305 11.7543 16.133 11.3157ZM19.7002 16.4035C21.2536 18.1651 22.2441 20.486 22.3756 23.0445C20.6907 23.6074 18.7463 23.6841 17.0175 23.2492C17.1052 20.6066 18.1103 18.2127 19.7002 16.4035ZM21.4144 14.8464C22.361 14.163 23.4246 13.6513 24.565 13.3442C25.4348 15.1754 26.2682 17.3647 27.0467 19.7331C26.3522 20.6067 25.5299 21.3632 24.6088 21.9626C24.2726 19.236 23.1176 16.7689 21.4144 14.8464ZM26.9809 13.0153C27.8142 13.019 28.6147 13.1103 29.3822 13.304C29.3383 14.6162 29.0678 15.8698 28.611 17.0211C28.1066 15.6213 27.562 14.269 26.9809 13.0153ZM19.353 2.31724C24.2323 2.31724 28.3076 6.0124 29.2067 10.8954C28.1139 10.6944 26.948 10.6432 25.8259 10.7602C24.1117 7.74851 22.1161 5.70539 19.8537 5.70539C17.5694 5.70539 15.5335 7.76313 13.7755 10.7821C12.3464 10.614 10.8442 10.709 9.46996 11.0526C10.3106 6.09281 14.4224 2.31724 19.353 2.31724ZM12.6023 13.019C11.8567 14.5723 11.1732 16.2755 10.5519 18.0262C9.84645 16.6739 9.41514 15.1388 9.33107 13.5087C10.3581 13.1615 11.4802 12.9861 12.6023 13.019ZM2.31723 23.6256C2.31723 19.8099 4.23242 16.4583 7.10156 14.5869C7.3903 16.9298 8.2821 19.0789 9.60519 20.8552C8.20169 25.3179 7.20391 29.7111 6.65566 32.35C4.03506 30.4348 2.31723 27.2367 2.31723 23.6256ZM12.3537 34.2323C11.0928 34.2323 9.88666 33.9874 8.77556 33.5342C9.45538 30.1497 10.3801 26.4071 11.4546 22.8544C12.4378 23.7134 13.5489 24.4151 14.7551 24.9195C15.0292 27.7923 16.2097 30.3873 17.986 32.3975C16.3815 33.5562 14.4407 34.2323 12.3537 34.2323ZM17.1965 25.6541C18.8449 25.9575 20.6249 25.899 22.2367 25.4933C21.8895 27.5401 20.9868 29.3822 19.7002 30.8442C18.4502 29.4224 17.562 27.6351 17.1965 25.6541ZM27.0503 34.2323C24.9634 34.2323 23.0226 33.5562 21.418 32.4012C23.2638 30.3179 24.4626 27.5949 24.6783 24.5906C25.8479 24.0021 26.9187 23.2273 27.8508 22.3025C28.9472 26.0087 29.8866 29.9707 30.5701 33.5598C29.4699 33.9948 28.2857 34.2323 27.0503 34.2323ZM32.6972 32.3902C32.1234 29.4663 31.0927 24.7441 29.638 20.0767C30.7309 18.3589 31.4436 16.3523 31.6483 14.1922C34.8756 15.9575 37.0868 19.5211 37.0868 23.622C37.0868 27.2623 35.3471 30.4787 32.6972 32.3902Z"/>
</svg>
