<svg xmlns="http://www.w3.org/2000/svg" fill="none" viewBox="0 0 16 13">
  <path fill="currentColor" fill-rule="evenodd" d="M5.57119 9.71797C3.97019 9.71797 2.90286 8.51722 2.63602 7.5833C3.03627 7.71672 3.56994 7.71672 3.97019 7.5833C3.03627 7.31647 2.36919 6.91622 1.96894 6.11572C1.70211 5.58205 1.56869 5.04839 1.56869 4.51472C1.96894 4.78155 2.50261 4.91497 2.90286 4.91497C2.23578 4.3813 1.83553 3.84764 1.56869 3.04714C1.43528 2.24664 1.56869 1.44613 1.83552 0.779051C3.56994 2.7803 5.70461 3.84764 8.23953 3.98105C8.23953 3.84764 8.23953 3.71422 8.23953 3.5808C8.10611 2.91372 8.23953 2.11322 8.63978 1.57955C9.17344 0.779051 9.84053 0.378801 10.7744 0.111967C11.8418 -0.0214493 12.7757 0.245384 13.4428 0.912468H13.5762C14.2433 0.779051 14.7769 0.512218 15.444 0.245384C15.1772 0.912468 14.7769 1.57955 14.1099 1.9798C14.7769 1.9798 15.3106 1.71297 15.8443 1.57955C15.7109 1.71297 15.5774 1.84639 15.444 1.9798C15.1772 2.38005 14.7769 2.7803 14.3767 3.04714C14.3767 3.04714 14.3767 3.04714 14.3767 3.18055C14.3767 3.5808 14.3767 4.11447 14.3767 4.51472C14.2433 5.44864 13.9764 6.38255 13.5762 7.31647C13.1759 8.25039 12.6423 9.05089 11.8418 9.71797C10.641 10.9187 9.17344 11.7192 7.57244 12.1195C7.03878 12.2529 6.37169 12.2529 5.83802 12.3863C4.10361 12.3863 2.36919 11.9861 0.901608 11.0521C0.901608 11.0521 0.901605 11.0521 0.768188 11.0521C1.83552 11.1856 2.90286 11.0521 3.83677 10.6519C4.63727 10.3851 5.17094 10.1182 5.57119 9.71797Z" clip-rule="evenodd" />
</svg>
